<?xml version="1.0" encoding="utf-8"?>
<!-- Generator: Adobe Illustrator 25.0.1, SVG Export Plug-In . SVG Version: 6.00 Build 0)  -->
<svg version="1.1" id="Layer_1" xmlns="http://www.w3.org/2000/svg" xmlns:xlink="http://www.w3.org/1999/xlink" x="0px" y="0px"
	 width="200px" height="600px" viewBox="0 0 200 600" style="enable-background:new 0 0 200 600;" xml:space="preserve">
<style type="text/css">
	.st0{opacity:0.8;}
	.st1{fill:#2C2C2C;}
	.st2{fill:#FFFFFF;}
</style>
<g class="st0">
	<path d="M10,98.5c-4.7,0-8.5-3.8-8.5-8.5V10c0-4.7,3.8-8.5,8.5-8.5h188.5v97H10z"/>
	<path class="st1" d="M197,3v94H10c-3.9,0-7-3.2-7-7V10c0-3.9,3.2-7,7-7H197 M200,0H10C4.5,0,0,4.5,0,10v80c0,5.5,4.5,10,10,10h190
		V0L200,0z"/>
</g>
<g class="st0">
	<path d="M10,198.5c-4.7,0-8.5-3.8-8.5-8.5v-80c0-4.7,3.8-8.5,8.5-8.5h188.5v97H10z"/>
	<path class="st1" d="M197,103v94H10c-3.9,0-7-3.2-7-7v-80c0-3.9,3.2-7,7-7H197 M200,100H10c-5.5,0-10,4.5-10,10v80
		c0,5.5,4.5,10,10,10h190V100L200,100z"/>
</g>
<g class="st0">
	<path d="M10,298.5c-4.7,0-8.5-3.8-8.5-8.5v-80c0-4.7,3.8-8.5,8.5-8.5h188.5v97H10z"/>
	<path class="st1" d="M197,203v94H10c-3.9,0-7-3.2-7-7v-80c0-3.9,3.2-7,7-7H197 M200,200H10c-5.5,0-10,4.5-10,10v80
		c0,5.5,4.5,10,10,10h190V200L200,200z"/>
</g>
<g class="st0">
	<path d="M10,398.5c-4.7,0-8.5-3.8-8.5-8.5v-80c0-4.7,3.8-8.5,8.5-8.5h188.5v97H10z"/>
	<path class="st1" d="M197,303v94H10c-3.9,0-7-3.2-7-7v-80c0-3.9,3.2-7,7-7H197 M200,300H10c-5.5,0-10,4.5-10,10v80
		c0,5.5,4.5,10,10,10h190V300L200,300z"/>
</g>
<g class="st0">
	<path d="M10,498.5c-4.7,0-8.5-3.8-8.5-8.5v-80c0-4.7,3.8-8.5,8.5-8.5h188.5v97H10z"/>
	<path class="st1" d="M197,403v94H10c-3.9,0-7-3.2-7-7v-80c0-3.9,3.2-7,7-7H197 M200,400H10c-5.5,0-10,4.5-10,10v80
		c0,5.5,4.5,10,10,10h190V400L200,400z"/>
</g>
<g class="st0">
	<path d="M10,598.5c-4.7,0-8.5-3.8-8.5-8.5v-80c0-4.7,3.8-8.5,8.5-8.5h188.5v97H10z"/>
	<path class="st1" d="M197,503v94H10c-3.9,0-7-3.2-7-7v-80c0-3.9,3.2-7,7-7H197 M200,500H10c-5.5,0-10,4.5-10,10v80
		c0,5.5,4.5,10,10,10h190V500L200,500z"/>
</g>
<path class="st2" d="M41.4,23c0-1.6,0.6-3.1,1.8-4.3c1.2-1.2,2.9-1.8,5.1-1.8c1.9,0,3.4,0.7,4.6,2c1.2,1.3,1.8,2.9,1.8,4.5
	c0,1.4-0.7,2.8-2,4.1c-1.3,1.3-3,2-5,2c-1.9,0-3.4-0.7-4.6-2C42,26.3,41.4,24.7,41.4,23L41.4,23z M50.8,50.3l-4.3,19.4
	c-0.9,4-0.8,6,0.4,6c0.6,0,1.6-0.4,3-1.3c1.5-0.9,2.8-2,3.9-3.3c0.6,0,1.1,0.3,1.7,0.9c0.6,0.6,0.9,1.2,1.1,1.8
	c-2.2,2.8-5,5.1-8.2,6.7c-3.1,1.6-6.6,2.4-10.1,2.4c-2.4,0-4-1.1-4.8-3.2c-0.5-1.4-0.3-4.5,0.7-9.1l4.4-20.3c0.4-1.8,0.6-3.1,0.6-4
	c0-1.2-0.6-1.9-1.7-2l-4-0.3c-0.3-0.5-0.4-1.1-0.3-2c0-0.9,0.2-1.5,0.5-1.9c6.7-0.9,12.4-1.3,17-1.3c1.3,0,2,0.7,2,2.1
	c0,0.7-0.1,1.4-0.3,2.1c-0.2,0.9-0.5,2.1-0.8,3.6S51,49.4,50.8,50.3z"/>
<g>
	<path class="st2" d="M39.1,145.1c-0.3-2.3-2.5-4-5-4c-4.5,0-6.2,3.8-6.2,7.8c0,3.8,1.7,7.6,6.2,7.6c3,0,4.8-2.1,5.1-5.1H44
		c-0.5,5.7-4.4,9.3-10,9.3c-7,0-11.2-5.2-11.2-11.8c0-6.7,4.1-12,11.2-12c5,0,9.2,2.9,9.8,8.2H39.1z"/>
	<path class="st2" d="M55,143.3c5.2,0,8.5,3.4,8.5,8.7c0,5.2-3.3,8.6-8.5,8.6c-5.1,0-8.5-3.4-8.5-8.6
		C46.6,146.7,49.9,143.3,55,143.3z M55,157.2c3.1,0,4-2.6,4-5.2c0-2.6-0.9-5.3-4-5.3c-3,0-4,2.6-4,5.3C51.1,154.6,52,157.2,55,157.2
		z"/>
	<path class="st2" d="M66.5,143.7h4.3v2.3h0.1c1.1-1.8,3.1-2.7,5-2.7c4.8,0,6,2.7,6,6.8v10.1h-4.5v-9.3c0-2.7-0.8-4-2.9-4
		c-2.4,0-3.5,1.4-3.5,4.7v8.6h-4.5V143.7z"/>
	<path class="st2" d="M91,143.7h3.3v3H91v8.1c0,1.5,0.4,1.9,1.9,1.9c0.5,0,0.9,0,1.4-0.1v3.5c-0.8,0.1-1.7,0.2-2.6,0.2
		c-2.8,0-5.2-0.6-5.2-3.9v-9.7h-2.7v-3h2.7v-4.9H91V143.7z"/>
	<path class="st2" d="M96.3,148.8c0.3-4.2,4-5.5,7.7-5.5c3.3,0,7.2,0.7,7.2,4.7v8.5c0,1.5,0.2,3,0.6,3.7h-4.6
		c-0.2-0.5-0.3-1-0.3-1.6c-1.4,1.5-3.5,2-5.5,2c-3.1,0-5.6-1.6-5.6-4.9c0-3.7,2.8-4.6,5.6-5c2.8-0.4,5.3-0.3,5.3-2.2
		s-1.3-2.2-2.9-2.2c-1.7,0-2.8,0.7-3,2.5H96.3z M106.7,152.1c-0.8,0.7-2.4,0.7-3.7,1c-1.4,0.3-2.7,0.8-2.7,2.4
		c0,1.7,1.3,2.1,2.8,2.1c3.5,0,3.7-2.8,3.7-3.8v-1.7H106.7z"/>
	<path class="st2" d="M125.9,149.5c-0.3-1.8-1.5-2.8-3.3-2.8c-2.9,0-3.8,2.9-3.8,5.3c0,2.4,0.9,5.2,3.7,5.2c2.1,0,3.3-1.3,3.6-3.3
		h4.4c-0.6,4.4-3.6,6.7-7.9,6.7c-5,0-8.3-3.5-8.3-8.4c0-5.1,3-8.9,8.4-8.9c3.9,0,7.4,2,7.7,6.2H125.9z"/>
	<path class="st2" d="M138.7,143.7h3.3v3h-3.3v8.1c0,1.5,0.4,1.9,1.9,1.9c0.5,0,0.9,0,1.4-0.1v3.5c-0.8,0.1-1.7,0.2-2.6,0.2
		c-2.8,0-5.2-0.6-5.2-3.9v-9.7h-2.7v-3h2.7v-4.9h4.5L138.7,143.7L138.7,143.7z"/>
</g>
<g>
	<path class="st2" d="M30.4,237.5h5.1l8.5,22.7h-5.2l-1.7-5.1h-8.5l-1.8,5.1h-5.1L30.4,237.5z M29.9,251.4h5.9l-2.9-8.3h-0.1
		L29.9,251.4z"/>
	<path class="st2" d="M45.5,237.5H50v8.3h0.1c1.1-1.7,3.1-2.4,5.2-2.4c3.3,0,6.8,2.6,6.8,8.6c0,6-3.5,8.7-6.8,8.7
		c-2.4,0-4.4-0.7-5.4-2.5h-0.1v2.1h-4.3V237.5z M53.7,246.7c-2.7,0-3.8,2.5-3.8,5.3c0,2.7,1.2,5.2,3.8,5.2c2.7,0,3.8-2.5,3.8-5.2
		C57.5,249.2,56.4,246.7,53.7,246.7z"/>
	<path class="st2" d="M72.9,243.3c5.2,0,8.5,3.4,8.5,8.7c0,5.2-3.3,8.6-8.5,8.6c-5.1,0-8.5-3.4-8.5-8.6
		C64.4,246.7,67.7,243.3,72.9,243.3z M72.9,257.2c3.1,0,4-2.6,4-5.2c0-2.6-0.9-5.3-4-5.3c-3,0-4,2.6-4,5.3
		C68.9,254.6,69.8,257.2,72.9,257.2z"/>
	<path class="st2" d="M99.7,260.2h-4.3v-2.3h-0.1c-1.1,1.8-3.1,2.7-5,2.7c-4.8,0-6-2.7-6-6.8v-10.1h4.5v9.3c0,2.7,0.8,4,2.9,4
		c2.4,0,3.5-1.4,3.5-4.7v-8.6h4.5V260.2z"/>
	<path class="st2" d="M108.9,243.7h3.3v3h-3.3v8.1c0,1.5,0.4,1.9,1.9,1.9c0.5,0,0.9,0,1.4-0.1v3.5c-0.8,0.1-1.7,0.2-2.6,0.2
		c-2.8,0-5.2-0.6-5.2-3.9v-9.7h-2.7v-3h2.7v-4.9h4.5C108.9,238.8,108.9,243.7,108.9,243.7z"/>
</g>
<g>
	<path class="st2" d="M24,337.5h10.7c4.3,0,7.2,1.4,7.2,5.6c0,2.2-1.1,3.8-3.1,4.7c2.8,0.8,4.2,2.9,4.2,5.8c0,4.6-3.9,6.6-8,6.6H24
		V337.5z M29,346.6h5c1.7,0,3-0.8,3-2.7c0-2.2-1.7-2.6-3.4-2.6H29V346.6z M29,356.3h5.3c2,0,3.7-0.6,3.7-3c0-2.3-1.5-3.2-3.6-3.2H29
		V356.3z"/>
	<path class="st2" d="M45.9,343.7h4.3v3h0.1c0.8-2.1,3-3.5,5.2-3.5c0.3,0,0.7,0.1,1,0.2v4.2c-0.4-0.1-1.1-0.2-1.6-0.2
		c-3.3,0-4.4,2.4-4.4,5.3v7.4H46L45.9,343.7L45.9,343.7z"/>
	<path class="st2" d="M65.7,343.3c5.2,0,8.5,3.4,8.5,8.7c0,5.2-3.3,8.6-8.5,8.6c-5.1,0-8.5-3.4-8.5-8.6
		C57.2,346.7,60.5,343.3,65.7,343.3z M65.7,357.2c3.1,0,4-2.6,4-5.2s-0.9-5.3-4-5.3c-3,0-4,2.6-4,5.3
		C61.7,354.6,62.6,357.2,65.7,357.2z"/>
	<path class="st2" d="M88.3,349.5c-0.3-1.8-1.5-2.8-3.3-2.8c-2.9,0-3.8,2.9-3.8,5.3s0.9,5.2,3.7,5.2c2.1,0,3.3-1.3,3.6-3.3h4.4
		c-0.6,4.4-3.6,6.7-7.9,6.7c-5,0-8.3-3.5-8.3-8.4c0-5.1,3-8.9,8.4-8.9c3.9,0,7.4,2,7.7,6.2L88.3,349.5L88.3,349.5z"/>
	<path class="st2" d="M95.3,337.5h4.5v8.5h0.1c1.1-1.8,3.1-2.7,4.8-2.7c4.8,0,6,2.7,6,6.8v10.1h-4.5v-9.3c0-2.7-0.8-4-2.9-4
		c-2.4,0-3.5,1.4-3.5,4.7v8.6h-4.5V337.5z"/>
	<path class="st2" d="M129.6,360.2h-4.3v-2.3h-0.1c-1.1,1.8-3.1,2.7-5,2.7c-4.8,0-6-2.7-6-6.8v-10.1h4.5v9.3c0,2.7,0.8,4,2.9,4
		c2.4,0,3.5-1.4,3.5-4.7v-8.6h4.5V360.2z"/>
	<path class="st2" d="M133,343.7h4.3v3h0.1c0.8-2.1,3-3.5,5.2-3.5c0.3,0,0.7,0.1,1,0.2v4.2c-0.4-0.1-1.1-0.2-1.6-0.2
		c-3.3,0-4.4,2.4-4.4,5.3v7.4H133V343.7z"/>
	<path class="st2" d="M148.5,353c0.1,2.9,1.5,4.2,4,4.2c1.8,0,3.3-1.1,3.6-2.1h4c-1.3,3.9-4,5.5-7.7,5.5c-5.2,0-8.4-3.6-8.4-8.6
		c0-4.9,3.4-8.7,8.4-8.7c5.6,0,8.3,4.7,8,9.8L148.5,353L148.5,353z M155.9,350.2c-0.4-2.3-1.4-3.5-3.6-3.5c-2.9,0-3.7,2.2-3.7,3.5
		H155.9z"/>
</g>
<g>
	<path class="st2" d="M34.8,460.2h-5.6l-7.4-22.7H27l5.1,15.9h0.1l5.1-15.9h5.1L34.8,460.2z"/>
	<path class="st2" d="M47.9,441.2h-4.5v-3.7h4.5V441.2z M43.3,443.7h4.5v16.4h-4.5V443.7z"/>
	<path class="st2" d="M63.1,458.1L63.1,458.1c-1.1,1.8-3,2.5-5.1,2.5c-5,0-7.4-4.3-7.4-8.8c0-4.4,2.4-8.5,7.3-8.5
		c1.9,0,3.8,0.8,4.9,2.4l0,0h0.1v-8.3h4.5v22.7h-4.3C63.1,460.1,63.1,458.1,63.1,458.1z M59.2,446.7c-3,0-4,2.5-4,5.2
		c0,2.6,1.2,5.3,4,5.3c3,0,3.9-2.6,3.9-5.3C63.1,449.2,62.1,446.7,59.2,446.7z"/>
	<path class="st2" d="M74.5,453c0.1,2.9,1.5,4.2,4,4.2c1.8,0,3.3-1.1,3.6-2.1h4c-1.3,3.9-4,5.5-7.7,5.5c-5.2,0-8.4-3.6-8.4-8.6
		c0-4.9,3.4-8.7,8.4-8.7c5.6,0,8.3,4.7,8,9.8L74.5,453L74.5,453z M81.9,450.2c-0.4-2.3-1.4-3.5-3.6-3.5c-2.9,0-3.7,2.2-3.7,3.5H81.9
		z"/>
	<path class="st2" d="M97,443.3c5.2,0,8.5,3.4,8.5,8.7c0,5.2-3.3,8.6-8.5,8.6c-5.1,0-8.5-3.4-8.5-8.6
		C88.6,446.7,91.9,443.3,97,443.3z M97,457.2c3.1,0,4-2.6,4-5.2s-0.9-5.3-4-5.3c-3,0-4,2.6-4,5.3C93.1,454.6,94,457.2,97,457.2z"/>
</g>
<g>
	
		<rect x="23.7" y="547.5" transform="matrix(0.7071 -0.7071 0.7071 0.7071 -375.2924 194.0179)" class="st2" width="45.6" height="5"/>
	<rect x="44" y="527.2" transform="matrix(0.7071 -0.7071 0.7071 0.7071 -375.318 194.0229)" class="st2" width="5" height="45.6"/>
</g>
</svg>
