<?xml version="1.0" encoding="utf-8"?>
<!-- Generator: Adobe Illustrator 25.0.1, SVG Export Plug-In . SVG Version: 6.00 Build 0)  -->
<svg version="1.1" id="Layer_1" xmlns="http://www.w3.org/2000/svg" xmlns:xlink="http://www.w3.org/1999/xlink" x="0px" y="0px"
	 width="200px" height="100px" viewBox="0 0 200 100" style="enable-background:new 0 0 200 100;" xml:space="preserve">
<style type="text/css">
	.st0{opacity:0.8;}
	.st1{fill:#2C2C2C;}
	.st2{fill:#FFFFFF;}
</style>
<g class="st0">
	<path d="M10,98.5c-4.7,0-8.5-3.8-8.5-8.5V10c0-4.7,3.8-8.5,8.5-8.5h188.5v97H10z"/>
	<path class="st1" d="M197,3v94H10c-3.9,0-7-3.2-7-7V10c0-3.9,3.2-7,7-7H197 M200,0H10C4.5,0,0,4.5,0,10V90c0,5.5,4.5,10,10,10h190
		V0L200,0z"/>
</g>
<path class="st2" d="M41.4,23c0-1.6,0.6-3.1,1.8-4.3c1.2-1.2,2.9-1.8,5.1-1.8c1.9,0,3.4,0.7,4.6,2c1.2,1.3,1.8,2.9,1.8,4.5
	c0,1.4-0.7,2.8-2,4.1c-1.3,1.3-3,2-5,2c-1.9,0-3.4-0.7-4.6-2C42,26.3,41.4,24.7,41.4,23L41.4,23z M50.8,50.3l-4.3,19.4
	c-0.9,4-0.8,6,0.4,6c0.6,0,1.6-0.4,3-1.3c1.5-0.9,2.8-2,3.9-3.3c0.6,0,1.1,0.3,1.7,0.9c0.6,0.6,0.9,1.2,1.1,1.8
	c-2.2,2.8-5,5.1-8.2,6.7c-3.1,1.6-6.6,2.4-10.1,2.4c-2.4,0-4-1.1-4.8-3.2c-0.5-1.4-0.3-4.5,0.7-9.1l4.4-20.3c0.4-1.8,0.6-3.1,0.6-4
	c0-1.2-0.6-1.9-1.7-2l-4-0.3c-0.3-0.5-0.4-1.1-0.3-2c0-0.9,0.2-1.5,0.5-1.9c6.7-0.9,12.4-1.3,17-1.3c1.3,0,2,0.7,2,2.1
	c0,0.7-0.1,1.4-0.3,2.1c-0.2,0.9-0.5,2.1-0.8,3.6S51,49.4,50.8,50.3z"/>
<g>
</g>
<g>
</g>
<g>
</g>
<g>
</g>
<g>
</g>
<g>
</g>
<g>
</g>
<g>
</g>
<g>
</g>
<g>
</g>
<g>
</g>
<g>
</g>
<g>
</g>
<g>
</g>
<g>
</g>
</svg>
