<?xml version="1.0" encoding="utf-8"?>
<!-- Generator: Adobe Illustrator 25.0.1, SVG Export Plug-In . SVG Version: 6.00 Build 0)  -->
<svg version="1.1" id="Layer_1" xmlns="http://www.w3.org/2000/svg" xmlns:xlink="http://www.w3.org/1999/xlink" x="0px" y="0px"
	 width="200px" height="700px" viewBox="0 0 200 700" style="enable-background:new 0 0 200 700;" xml:space="preserve">
<style type="text/css">
	.st0{opacity:0.8;}
	.st1{fill:#2C2C2C;}
	.st2{fill:#FFFFFF;}
</style>
<g class="st0">
	<path d="M10,98.5c-4.7,0-8.5-3.8-8.5-8.5V10c0-4.7,3.8-8.5,8.5-8.5h188.5v97H10z"/>
	<path class="st1" d="M197,3v94H10c-3.9,0-7-3.2-7-7V10c0-3.9,3.2-7,7-7H197 M200,0H10C4.5,0,0,4.5,0,10v80c0,5.5,4.5,10,10,10h190
		V0L200,0z"/>
</g>
<g class="st0">
	<path d="M10,198.5c-4.7,0-8.5-3.8-8.5-8.5v-80c0-4.7,3.8-8.5,8.5-8.5h188.5v97H10z"/>
	<path class="st1" d="M197,103v94H10c-3.9,0-7-3.2-7-7v-80c0-3.9,3.2-7,7-7H197 M200,100H10c-5.5,0-10,4.5-10,10v80
		c0,5.5,4.5,10,10,10h190V100L200,100z"/>
</g>
<g class="st0">
	<path d="M10,298.5c-4.7,0-8.5-3.8-8.5-8.5v-80c0-4.7,3.8-8.5,8.5-8.5h188.5v97H10z"/>
	<path class="st1" d="M197,203v94H10c-3.9,0-7-3.2-7-7v-80c0-3.9,3.2-7,7-7H197 M200,200H10c-5.5,0-10,4.5-10,10v80
		c0,5.5,4.5,10,10,10h190V200L200,200z"/>
</g>
<g class="st0">
	<path d="M10,398.5c-4.7,0-8.5-3.8-8.5-8.5v-80c0-4.7,3.8-8.5,8.5-8.5h188.5v97H10z"/>
	<path class="st1" d="M197,303v94H10c-3.9,0-7-3.2-7-7v-80c0-3.9,3.2-7,7-7H197 M200,300H10c-5.5,0-10,4.5-10,10v80
		c0,5.5,4.5,10,10,10h190V300L200,300z"/>
</g>
<g class="st0">
	<path d="M10,498.5c-4.7,0-8.5-3.8-8.5-8.5v-80c0-4.7,3.8-8.5,8.5-8.5h188.5v97H10z"/>
	<path class="st1" d="M197,403v94H10c-3.9,0-7-3.2-7-7v-80c0-3.9,3.2-7,7-7H197 M200,400H10c-5.5,0-10,4.5-10,10v80
		c0,5.5,4.5,10,10,10h190V400L200,400z"/>
</g>
<g class="st0">
	<path d="M10,598.5c-4.7,0-8.5-3.8-8.5-8.5v-80c0-4.7,3.8-8.5,8.5-8.5h188.5v97H10z"/>
	<path class="st1" d="M197,503v94H10c-3.9,0-7-3.2-7-7v-80c0-3.9,3.2-7,7-7H197 M200,500H10c-5.5,0-10,4.5-10,10v80
		c0,5.5,4.5,10,10,10h190V500L200,500z"/>
</g>
<g class="st0">
	<path d="M10,698.5c-4.7,0-8.5-3.8-8.5-8.5v-80c0-4.7,3.8-8.5,8.5-8.5h188.5v97H10z"/>
	<path class="st1" d="M197,603v94H10c-3.9,0-7-3.2-7-7v-80c0-3.9,3.2-7,7-7H197 M200,600H10c-5.5,0-10,4.5-10,10v80
		c0,5.5,4.5,10,10,10h190V600L200,600z"/>
</g>
<path class="st2" d="M43.1,35.9c0-0.8,0.3-1.6,0.9-2.2c0.6-0.6,1.5-0.9,2.7-0.9c1,0,1.8,0.4,2.4,1c0.6,0.7,0.9,1.5,0.9,2.3
	c0,0.7-0.4,1.5-1,2.1c-0.7,0.7-1.6,1-2.6,1c-1,0-1.8-0.4-2.4-1C43.4,37.6,43.1,36.7,43.1,35.9L43.1,35.9z M48,50.1l-2.2,10.1
	c-0.5,2.1-0.4,3.1,0.2,3.1c0.3,0,0.8-0.2,1.6-0.7c0.8-0.5,1.5-1,2-1.7c0.3,0,0.6,0.2,0.9,0.5c0.3,0.3,0.5,0.6,0.6,0.9
	c-1.1,1.5-2.6,2.7-4.3,3.5c-1.6,0.8-3.4,1.3-5.3,1.3c-1.3,0-2.1-0.6-2.5-1.7c-0.3-0.7-0.2-2.3,0.4-4.8l2.3-10.6
	c0.2-0.9,0.3-1.6,0.3-2.1c0-0.6-0.3-1-0.9-1l-2.1-0.2c-0.2-0.3-0.2-0.6-0.2-1c0-0.5,0.1-0.8,0.3-1c3.5-0.5,6.5-0.7,8.9-0.7
	c0.7,0,1,0.4,1,1.1c0,0.4-0.1,0.7-0.2,1.1c-0.1,0.5-0.3,1.1-0.4,1.9S48.1,49.6,48,50.1z"/>
<g>
	
		<rect x="23.7" y="547.5" transform="matrix(0.7071 -0.7071 0.7071 0.7071 -375.2924 194.0179)" class="st2" width="45.6" height="5"/>
	<rect x="44" y="527.2" transform="matrix(0.7071 -0.7071 0.7071 0.7071 -375.318 194.0229)" class="st2" width="5" height="45.6"/>
</g>
<g>
	<path class="st2" d="M37.1,145.4c-0.2-1.2-0.7-2.1-1.4-2.7c-0.8-0.6-1.8-0.9-3.1-0.9c-1.9,0-3.2,0.8-4,2.2c-0.8,1.4-1.3,3-1.2,4.8
		c0,1.8,0.4,3.4,1.2,4.7c0.8,1.4,2.1,2.1,4,2.2c2.8,0,4.3-1.5,4.5-4.3H43c-0.2,3-1.2,5.3-3.1,7c-1.9,1.7-4.3,2.5-7.2,2.5
		c-3.4,0-6.2-1.2-8.1-3.5c-2-2.3-3-5.1-3.1-8.6c0-3.5,1-6.3,3.1-8.6c2-2.3,4.7-3.5,8.1-3.5c2.5,0,4.8,0.8,6.9,2.3
		c2,1.5,3.1,3.7,3.3,6.5H37.1z"/>
	<path class="st2" d="M45.9,151.9c0-2.6,0.8-4.7,2.4-6.4c1.6-1.7,3.6-2.5,6.2-2.5c2.6,0,4.7,0.9,6.2,2.5c1.6,1.7,2.4,3.8,2.4,6.4
		c0,2.6-0.8,4.7-2.4,6.3c-1.5,1.7-3.6,2.5-6.2,2.6c-2.6,0-4.6-0.9-6.2-2.6C46.7,156.6,45.9,154.5,45.9,151.9z M51.2,151.9
		c0,0.5,0.1,1.1,0.2,1.6c0.1,0.6,0.3,1.1,0.5,1.5c0.2,0.5,0.6,0.8,1,1.1c0.4,0.3,0.9,0.4,1.5,0.4c0.6,0,1.2-0.1,1.6-0.4
		c0.4-0.3,0.7-0.7,1-1.1c0.2-0.5,0.4-1,0.6-1.5c0.1-0.5,0.1-1.1,0.1-1.6c0-1.2-0.2-2.2-0.7-3.2c-0.5-1-1.4-1.5-2.6-1.5
		c-1.2,0-2.1,0.5-2.6,1.5C51.4,149.7,51.2,150.8,51.2,151.9z"/>
	<path class="st2" d="M66.5,143.5h5.2v2.3h0.1c0.5-0.9,1.3-1.6,2.2-2.1c0.9-0.5,1.9-0.7,2.9-0.7c1.4,0,2.5,0.2,3.3,0.7
		c0.8,0.4,1.4,1,1.7,1.7c0.4,0.7,0.7,1.4,0.8,2.1c0.1,0.8,0.1,1.5,0.1,2.1v10.8h-5.3v-8.2c0-0.6,0-1.2,0-1.7c0-0.6-0.1-1.1-0.2-1.5
		c-0.1-0.4-0.4-0.8-0.8-1c-0.4-0.3-1-0.4-1.7-0.4c-1,0-1.7,0.4-2.2,1.1c-0.5,0.7-0.7,1.6-0.7,2.5v9.2h-5.3V143.5z"/>
	<path class="st2" d="M96.8,147h-3.3v7.7c0,0.6,0.2,1,0.5,1.3c0.4,0.2,0.8,0.3,1.4,0.3c0.4,0,0.9,0,1.4-0.1v4.1
		c-1,0.1-1.9,0.1-2.9,0.2c-2.2,0-3.7-0.4-4.5-1.3c-0.8-0.9-1.2-2.5-1.2-4.7V147h-2.7v-3.6h2.7v-5.1h5.3v5.1h3.3V147z"/>
	<path class="st2" d="M99.4,148.7c0.2-2.2,1-3.7,2.6-4.5c1.5-0.8,3.3-1.2,5.2-1.2c1,0,1.9,0.1,2.9,0.2c0.9,0.1,1.7,0.4,2.4,0.8
		c0.7,0.4,1.3,1,1.7,1.7c0.4,0.8,0.6,1.8,0.6,3v7.4c0,0.7,0,1.4,0.1,2.2c0.1,0.7,0.2,1.4,0.5,2.1H110c-0.2-0.5-0.3-1-0.3-1.6
		c-0.3,0.4-0.7,0.7-1.1,0.9c-0.4,0.3-0.8,0.5-1.3,0.7c-1,0.3-1.9,0.5-2.9,0.5c-1.6,0-2.9-0.4-3.9-1.3c-1.1-0.8-1.6-2.1-1.6-3.8
		c0-1.4,0.3-2.4,1-3.1c0.6-0.7,1.4-1.3,2.4-1.6c1-0.3,2-0.6,3.1-0.7c1.1-0.1,2.1-0.2,3-0.4c0.9-0.1,1.4-0.6,1.4-1.6
		c0-0.6-0.3-1.1-0.8-1.4c-0.6-0.2-1.1-0.3-1.7-0.3c-1.5,0-2.4,0.7-2.7,2.1H99.4z M104,155.5c0,0.7,0.2,1.1,0.7,1.4
		c0.4,0.3,0.9,0.5,1.5,0.5c2.4,0,3.5-1.6,3.3-5c-0.4,0.2-0.9,0.4-1.5,0.5c-0.6,0.1-1.2,0.3-1.8,0.4c-0.6,0.1-1.1,0.3-1.5,0.7
		C104.3,154.3,104,154.8,104,155.5z"/>
	<path class="st2" d="M129.5,149.6c0-0.7-0.3-1.3-0.8-1.8c-0.5-0.4-1.1-0.7-1.8-0.7s-1.3,0.1-1.8,0.4c-0.5,0.3-0.8,0.7-1.1,1.2
		c-0.3,0.5-0.4,1-0.5,1.6c-0.1,0.6-0.1,1.2-0.1,1.8c0,1.1,0.3,2.1,0.8,3c0.2,0.4,0.6,0.8,1,1c0.4,0.3,0.9,0.4,1.4,0.4
		c1.8,0,2.9-1,3.1-2.9h5.2c-0.3,2.3-1.2,4-2.6,5.2c-1.5,1.2-3.3,1.9-5.6,1.9c-2.5,0-4.5-0.8-6.1-2.4c-1.6-1.6-2.4-3.6-2.4-6.2
		c0-2.8,0.8-5,2.3-6.6c1.5-1.7,3.6-2.5,6.2-2.6c2.1,0,3.9,0.6,5.4,1.7c1.5,1.1,2.4,2.8,2.6,5H129.5z"/>
	<path class="st2" d="M147.9,147h-3.3v7.7c0,0.6,0.2,1,0.5,1.3c0.4,0.2,0.8,0.3,1.4,0.3c0.4,0,0.9,0,1.4-0.1v4.1
		c-1,0.1-1.9,0.1-2.9,0.2c-2.2,0-3.7-0.4-4.5-1.3c-0.8-0.9-1.2-2.5-1.2-4.7V147h-2.7v-3.6h2.7v-5.1h5.3v5.1h3.3V147z"/>
</g>
<g>
	<path class="st2" d="M29,236.9h3.3l8.8,23.2h-3.3l-2.4-7h-9.5l-2.5,7h-3.1L29,236.9z M26.7,250.5h7.6l-3.7-10.8h-0.1L26.7,250.5z"
		/>
	<path class="st2" d="M43.6,236.9h2.7v8.7h0.1c0.5-1,1.2-1.6,2.1-2.1c0.9-0.4,2-0.6,3.1-0.6c2.5,0,4.4,0.9,5.7,2.6
		c1.2,1.7,1.8,3.7,1.8,6.2c0,2.4-0.6,4.5-1.8,6.1c-1.3,1.7-3.1,2.5-5.6,2.6c-0.9,0-1.8-0.2-2.8-0.6c-0.5-0.2-0.9-0.5-1.4-0.9
		c-0.4-0.3-0.8-0.7-1.1-1.2h-0.1v2.2h-2.7V236.9z M56.2,251.6c0-1.6-0.4-3.1-1.2-4.3c-0.8-1.2-2.1-1.8-3.9-1.9c-1.8,0-3,0.7-3.8,1.9
		c-0.8,1.3-1.2,2.7-1.2,4.4c0,1.7,0.4,3.2,1.2,4.4c0.8,1.3,2.1,1.9,3.9,1.9c1.8,0,3.1-0.7,3.9-2C55.8,254.8,56.2,253.3,56.2,251.6z"
		/>
	<path class="st2" d="M61.8,251.8c0-2.5,0.7-4.6,2-6.3c1.3-1.7,3.3-2.5,5.9-2.5c2.6,0,4.6,0.9,5.9,2.5c1.3,1.6,2,3.7,2,6.3
		c0,2.5-0.7,4.6-2,6.2c-1.4,1.7-3.3,2.5-5.9,2.6c-2.6-0.1-4.5-0.9-5.9-2.6C62.5,256.3,61.8,254.2,61.8,251.8z M64.7,251.8
		c0,2,0.5,3.6,1.5,4.7c0.9,1.1,2.1,1.6,3.6,1.6c1.4,0,2.6-0.5,3.6-1.6c1-1.1,1.5-2.6,1.5-4.7c0-2.1-0.5-3.6-1.5-4.7
		c-0.9-1.1-2.1-1.6-3.6-1.6c-1.4,0-2.6,0.5-3.6,1.6C65.2,248.1,64.7,249.7,64.7,251.8z"/>
	<path class="st2" d="M94.8,260.1h-2.5v-2.6h-0.1c-1.2,2-2.9,3-5.3,3c-2.1,0-3.6-0.6-4.4-1.8c-0.8-1.1-1.2-2.6-1.2-4.4v-11.1H84
		v11.4c0,2.2,1.1,3.3,3.3,3.4c1.6,0,2.9-0.5,3.7-1.5c0.8-1,1.2-2.2,1.2-3.7v-9.5h2.7V260.1z"/>
	<path class="st2" d="M103.1,243.3h3.2v2.4h-3.2v10.4c0,0.6,0.1,1,0.4,1.2c0.3,0.2,0.8,0.3,1.6,0.3h1.2v2.4h-2c-1.4,0-2.4-0.2-3-0.7
		c-0.6-0.5-0.9-1.5-0.9-3v-10.7h-2.8v-2.4h2.8v-5h2.7V243.3z"/>
</g>
<g>
	<path class="st2" d="M22.9,337.3H31c1.1,0,2.1,0,3.2,0.1c1.1,0.1,2,0.3,2.7,0.7c0.8,0.5,1.4,1.1,1.9,1.9c0.5,0.8,0.7,1.8,0.8,3
		c0,2.5-1.2,4.3-3.3,5.2v0.1c2.9,0.7,4.3,2.6,4.3,5.6c0,1.8-0.6,3.3-1.7,4.6c-1.2,1.4-2.9,2.1-5.1,2.1H22.9V337.3z M25.8,347.2h6
		c3.2,0,4.8-1.2,4.8-3.7c0-0.8-0.1-1.5-0.4-2c-0.2-0.5-0.6-0.8-1.1-1.1c-0.4-0.3-0.9-0.4-1.5-0.5c-0.6-0.1-1.2-0.1-1.9-0.1h-6V347.2
		z M25.8,357.8h7.5c2.7-0.1,4.1-1.4,4.2-4.2c0-1.5-0.5-2.5-1.5-3.1c-1-0.5-2.1-0.8-3.4-0.8h-6.8V357.8z"/>
	<path class="st2" d="M44.6,343.6h2.5v3.5h0.1c1.2-2.7,3.2-4,6-3.9v2.9c-4,0.1-6,2.3-5.9,6.8v7.5h-2.7V343.6z"/>
	<path class="st2" d="M54,352.1c0-2.5,0.7-4.6,2-6.3c1.3-1.7,3.3-2.5,5.9-2.5c2.6,0,4.6,0.9,5.9,2.5c1.3,1.6,2,3.7,2,6.3
		c0,2.5-0.7,4.6-2,6.2c-1.4,1.7-3.3,2.5-5.9,2.6c-2.6-0.1-4.5-0.9-5.9-2.6C54.7,356.6,54,354.6,54,352.1z M56.8,352.1
		c0,2,0.5,3.6,1.5,4.7c0.9,1.1,2.1,1.6,3.6,1.6c1.4,0,2.6-0.5,3.6-1.6c1-1.1,1.5-2.6,1.5-4.7c0-2.1-0.5-3.6-1.5-4.7
		c-0.9-1.1-2.1-1.6-3.6-1.6c-1.4,0-2.6,0.5-3.6,1.6C57.4,348.4,56.9,350,56.8,352.1z"/>
	<path class="st2" d="M84.6,349.1c-0.4-2.2-1.8-3.3-4-3.3c-1.9,0-3.2,0.7-4,2c-0.8,1.3-1.1,2.8-1.1,4.6c0,1.6,0.4,3,1.1,4.2
		c0.7,1.3,1.9,1.9,3.6,1.9c2.6,0,4.1-1.4,4.5-4.1h2.7c-0.6,4.3-3,6.5-7.2,6.5c-2.5,0-4.4-0.8-5.7-2.4c-1.3-1.5-2-3.6-2-6.1
		c0-2.6,0.6-4.7,1.9-6.4c1.3-1.7,3.2-2.6,5.7-2.6c1.9,0,3.5,0.5,4.8,1.4c1.3,0.9,2,2.4,2.2,4.4H84.6z"/>
	<path class="st2" d="M91,337.3h2.7v8.9h0.1c0.5-1,1.2-1.7,2.2-2.2c0.9-0.4,1.9-0.7,2.9-0.7c2.1,0,3.6,0.6,4.4,1.7
		c0.8,1.1,1.2,2.6,1.2,4.5v11h-2.7v-11.4c0-2.2-1.1-3.3-3.3-3.4c-1.6,0-2.8,0.5-3.6,1.5c-0.8,1-1.2,2.2-1.2,3.8v9.5H91V337.3z"/>
	<path class="st2" d="M122.5,360.4H120v-2.6H120c-1.2,2-2.9,3-5.3,3c-2.1,0-3.6-0.6-4.4-1.8c-0.8-1.1-1.2-2.6-1.2-4.4v-11.1h2.7V355
		c0,2.2,1.1,3.3,3.3,3.4c1.6,0,2.9-0.5,3.7-1.5c0.8-1,1.2-2.2,1.2-3.7v-9.5h2.7V360.4z"/>
	<path class="st2" d="M127.1,343.6h2.5v3.5h0.1c1.2-2.7,3.2-4,6-3.9v2.9c-4,0.1-6,2.3-5.9,6.8v7.5h-2.7V343.6z"/>
	<path class="st2" d="M151.2,355.1c-0.9,3.8-3.2,5.7-6.9,5.7c-2.6-0.1-4.5-0.9-5.8-2.5c-1.3-1.6-2-3.7-2-6.3c0-2.6,0.7-4.7,2.2-6.3
		c1.4-1.6,3.2-2.4,5.5-2.5c2.9,0.1,4.8,1.1,5.9,3.2c1.1,2.1,1.6,4.2,1.5,6.4h-12.2c0,1.5,0.4,2.8,1.2,3.8c0.8,1.1,2.1,1.7,3.9,1.7
		c2.3,0,3.7-1.1,4.2-3.3H151.2z M148.7,350.4c-0.1-1.4-0.5-2.5-1.4-3.4s-1.9-1.3-3.3-1.4c-1.4,0-2.5,0.5-3.3,1.4
		c-0.8,0.9-1.3,2-1.4,3.4H148.7z"/>
</g>
<g>
	<path class="st2" d="M31.7,460.4h-3.4l-7.9-23.2h3.2l6.4,20.1h0.1l6.5-20.1h3.1L31.7,460.4z"/>
	<path class="st2" d="M44.5,440.6h-2.7v-3.4h2.7V440.6z M41.8,443.6h2.7v16.8h-2.7V443.6z"/>
	<path class="st2" d="M63.4,460.4h-2.7v-2.3h-0.1c-0.5,0.9-1.2,1.6-2.1,2c-0.9,0.5-2,0.7-3.1,0.7c-2.5-0.1-4.3-0.9-5.6-2.7
		c-1.3-1.7-1.9-3.7-1.9-6.2c0-2.5,0.6-4.5,1.9-6.2c1.2-1.7,3.1-2.5,5.6-2.6c0.4,0,0.9,0,1.4,0.1c0.5,0.1,1,0.3,1.4,0.4
		c1,0.4,1.8,1.1,2.4,2.1h0.1v-8.7h2.7V460.4z M50.8,452.2c0,1.6,0.4,3,1.2,4.2c0.8,1.3,2.1,1.9,3.8,1.9c1.8,0,3.1-0.7,3.9-2
		c0.7-1.3,1.1-2.7,1.1-4.3c0-1.7-0.4-3.2-1.2-4.5c-0.8-1.3-2.1-1.9-4-1.9c-1.8,0-3,0.7-3.8,2C51.2,449,50.8,450.5,50.8,452.2z"/>
	<path class="st2" d="M82,455.1c-0.9,3.8-3.2,5.7-6.9,5.7c-2.6-0.1-4.5-0.9-5.8-2.5c-1.3-1.6-2-3.7-2-6.3c0-2.6,0.7-4.7,2.2-6.3
		c1.4-1.6,3.2-2.4,5.5-2.5c2.9,0.1,4.8,1.1,5.9,3.2c1.1,2.1,1.6,4.2,1.5,6.4H70.1c0,1.5,0.4,2.8,1.2,3.8c0.8,1.1,2.1,1.7,3.9,1.7
		c2.3,0,3.7-1.1,4.2-3.3H82z M79.5,450.4c-0.1-1.4-0.5-2.5-1.4-3.4s-1.9-1.3-3.3-1.4c-1.4,0-2.5,0.5-3.3,1.4c-0.8,0.9-1.3,2-1.4,3.4
		H79.5z"/>
	<path class="st2" d="M84.7,452.1c0-2.5,0.7-4.6,2-6.3c1.3-1.7,3.3-2.5,5.9-2.5c2.6,0,4.6,0.9,5.9,2.5c1.3,1.6,2,3.7,2,6.3
		c0,2.5-0.7,4.6-2,6.2c-1.4,1.7-3.3,2.5-5.9,2.6c-2.6-0.1-4.5-0.9-5.9-2.6C85.4,456.6,84.7,454.6,84.7,452.1z M87.5,452.1
		c0,2,0.5,3.6,1.5,4.7c0.9,1.1,2.1,1.6,3.6,1.6c1.4,0,2.6-0.5,3.6-1.6c1-1.1,1.5-2.6,1.5-4.7c0-2.1-0.5-3.6-1.5-4.7
		c-0.9-1.1-2.1-1.6-3.6-1.6c-1.4,0-2.6,0.5-3.6,1.6C88.1,448.4,87.6,450,87.5,452.1z"/>
</g>
<g>
	<path class="st2" d="M22.8,617.8h10.6c4.5,0.1,6.8,2.1,6.8,6.1c0,1.4-0.3,2.6-0.9,3.7c-0.7,1.1-1.7,1.8-3,2.2v0.1
		c0.7,0.1,1.2,0.3,1.6,0.6c0.4,0.3,0.7,0.7,1,1.1c0.4,0.9,0.7,1.9,0.7,3.1c0.1,1.2,0.2,2.3,0.3,3.4c0.1,0.5,0.2,1.1,0.3,1.6
		c0.2,0.5,0.4,1,0.7,1.4h-3.3c-0.2-0.3-0.3-0.6-0.4-1c-0.1-0.4-0.1-0.8-0.2-1.4c0-0.5-0.1-1.1-0.1-1.6c0-0.6-0.1-1.1-0.2-1.7
		c-0.1-0.6-0.2-1.1-0.3-1.7c-0.1-0.5-0.3-0.9-0.6-1.3c-0.3-0.4-0.6-0.7-1.1-0.9c-0.5-0.2-1.1-0.3-1.8-0.3h-7.3v9.9h-3V617.8z
		 M32.1,628.5c1.4,0,2.7-0.3,3.6-0.8c0.5-0.3,0.9-0.8,1.2-1.3c0.3-0.5,0.4-1.2,0.4-2c0-1.2-0.3-2.1-0.9-2.9
		c-0.6-0.7-1.7-1.1-3.1-1.1h-7.5v8.1H32.1z"/>
	<path class="st2" d="M58.5,635.6c-0.9,3.8-3.2,5.7-6.9,5.7c-2.6-0.1-4.5-0.9-5.8-2.5c-1.3-1.6-2-3.7-2-6.3c0-2.6,0.7-4.7,2.2-6.3
		c1.4-1.6,3.2-2.4,5.5-2.5c2.9,0.1,4.8,1.1,5.9,3.2c1.1,2.1,1.6,4.2,1.5,6.4H46.6c0,1.5,0.4,2.8,1.2,3.8c0.8,1.1,2.1,1.7,3.9,1.7
		c2.3,0,3.7-1.1,4.2-3.3H58.5z M55.9,630.9c-0.1-1.4-0.5-2.5-1.4-3.4s-1.9-1.3-3.3-1.4c-1.4,0-2.5,0.5-3.3,1.4
		c-0.8,0.9-1.3,2-1.4,3.4H55.9z"/>
	<path class="st2" d="M63.7,635.7c0.1,1.2,0.6,2.1,1.4,2.5c0.8,0.5,1.8,0.7,3,0.7c0.5,0,0.9,0,1.4-0.1c0.5-0.1,0.9-0.2,1.3-0.4
		c0.4-0.2,0.7-0.5,1-0.8c0.2-0.3,0.3-0.7,0.3-1.2c0-0.5-0.1-1-0.4-1.3c-0.3-0.3-0.7-0.6-1.2-0.8c-1.1-0.4-2.3-0.7-3.7-0.9
		c-0.3-0.1-0.6-0.2-0.9-0.3c-0.3-0.1-0.7-0.2-1-0.3c-0.6-0.2-1.2-0.5-1.7-0.8c-0.5-0.3-0.9-0.8-1.2-1.3c-0.3-0.5-0.5-1.2-0.5-2
		c0-0.8,0.2-1.6,0.6-2.2c0.4-0.6,0.8-1.1,1.4-1.5c1.2-0.7,2.6-1.1,4.1-1.1c1.8,0,3.4,0.3,4.6,1.1c1.2,0.8,1.9,2.2,2,4.2h-2.7
		c-0.1-1.1-0.6-1.8-1.3-2.2c-0.7-0.4-1.6-0.6-2.5-0.6c-0.8,0-1.6,0.1-2.3,0.4c-0.8,0.3-1.1,0.9-1.2,1.7c0,0.5,0.2,0.9,0.5,1.2
		c0.3,0.3,0.8,0.6,1.3,0.8c0.5,0.2,1.1,0.4,1.7,0.5c0.6,0.1,1.2,0.3,1.8,0.5c0.7,0.1,1.4,0.3,2,0.5c0.6,0.2,1.2,0.5,1.7,0.9
		c0.5,0.3,0.9,0.8,1.2,1.3c0.3,0.5,0.4,1.2,0.4,2c0,1.9-0.8,3.3-2.2,4.1c-1.4,0.8-3,1.2-4.7,1.2c-1.9,0-3.4-0.4-4.7-1.3
		c-1.3-0.9-2-2.4-2.2-4.4H63.7z"/>
	<path class="st2" d="M82,624.2h3.3v2.4H82V637c0,0.6,0.1,1,0.4,1.2c0.3,0.2,0.8,0.3,1.6,0.3h1.2v2.4h-2c-1.4,0-2.4-0.2-3-0.7
		c-0.6-0.5-0.9-1.5-0.9-3v-10.7h-2.8v-2.4h2.8v-5H82V624.2z"/>
	<path class="st2" d="M103,640.9c-0.4,0.3-1.1,0.5-1.9,0.5c-1.5,0-2.2-0.8-2.3-2.6c-1.5,1.7-3.4,2.6-5.7,2.6c-1.5,0-2.8-0.4-3.8-1.1
		c-1-0.7-1.6-1.9-1.6-3.6c0-1,0.2-1.8,0.5-2.4c0.3-0.6,0.7-1.1,1.2-1.5c0.6-0.4,1.2-0.7,1.8-0.9c0.6-0.2,1.3-0.4,2-0.5
		c0.8-0.1,1.5-0.3,2.1-0.3c0.7-0.1,1.2-0.2,1.7-0.3c1-0.2,1.6-0.8,1.6-1.8c0-0.6-0.1-1.1-0.3-1.5c-0.2-0.3-0.5-0.6-0.9-0.8
		c-0.7-0.3-1.6-0.5-2.5-0.5c-1.2,0-2.1,0.2-2.8,0.7c-0.8,0.5-1.2,1.3-1.3,2.5h-2.7c0.1-2.1,0.9-3.5,2.2-4.4c1.3-0.8,2.9-1.2,4.7-1.2
		c0.8,0,1.5,0,2.2,0.1c0.7,0.1,1.4,0.4,2,0.7c0.6,0.3,1.1,0.8,1.4,1.4c0.3,0.6,0.5,1.4,0.5,2.4v8.6c0,0.7,0,1.1,0.1,1.4
		c0.1,0.3,0.3,0.5,0.7,0.5c0.2,0,0.5-0.1,0.8-0.2V640.9z M98.7,632.3c-0.5,0.4-1.2,0.6-2.1,0.7c-0.9,0.1-1.8,0.3-2.8,0.4
		c-0.9,0.1-1.7,0.4-2.3,0.8c-0.7,0.4-1,1.2-1,2.2c0,0.9,0.3,1.5,1,1.9c0.6,0.4,1.3,0.6,2.2,0.6c0.9,0,1.7-0.1,2.3-0.4
		c0.6-0.2,1.2-0.5,1.6-0.9c0.8-0.8,1.1-1.6,1.1-2.4V632.3z"/>
	<path class="st2" d="M105.9,624.2h2.5v3.5h0.1c1.2-2.7,3.2-4,6-3.9v2.9c-4,0.1-6,2.3-5.9,6.8v7.5h-2.7V624.2z"/>
	<path class="st2" d="M120.5,624.2h3.2v2.4h-3.2V637c0,0.6,0.1,1,0.4,1.2c0.3,0.2,0.8,0.3,1.6,0.3h1.2v2.4h-2c-1.4,0-2.4-0.2-3-0.7
		c-0.6-0.5-0.9-1.5-0.9-3v-10.7h-2.8v-2.4h2.8v-5h2.7V624.2z"/>
	<path class="st2" d="M24,674.6c0.1,1.2,0.6,2.1,1.4,2.5c0.8,0.5,1.8,0.7,3,0.7c0.5,0,0.9,0,1.4-0.1c0.5-0.1,0.9-0.2,1.3-0.4
		c0.4-0.2,0.7-0.4,1-0.8c0.2-0.3,0.3-0.7,0.3-1.2c0-0.5-0.1-1-0.4-1.3c-0.3-0.3-0.7-0.6-1.2-0.8c-1.1-0.4-2.3-0.7-3.7-0.9
		c-0.3-0.1-0.6-0.2-0.9-0.3c-0.3-0.1-0.7-0.2-1-0.3c-0.6-0.2-1.2-0.5-1.7-0.8c-0.5-0.3-0.9-0.8-1.2-1.3c-0.3-0.5-0.5-1.2-0.5-2
		c0-0.8,0.2-1.6,0.6-2.2c0.4-0.6,0.8-1.1,1.4-1.5c1.2-0.7,2.6-1.1,4.1-1.1c1.8,0,3.4,0.3,4.6,1.1c1.2,0.8,1.9,2.2,2,4.2h-2.7
		c-0.1-1.1-0.6-1.8-1.3-2.2c-0.7-0.4-1.6-0.6-2.5-0.6c-0.8,0-1.6,0.1-2.3,0.4c-0.8,0.3-1.1,0.9-1.2,1.7c0,0.5,0.2,0.9,0.5,1.2
		c0.3,0.3,0.8,0.6,1.3,0.8c0.5,0.2,1.1,0.4,1.7,0.5c0.6,0.1,1.2,0.3,1.8,0.5c0.7,0.1,1.4,0.3,2,0.5c0.6,0.2,1.2,0.5,1.7,0.9
		c0.5,0.3,0.9,0.8,1.2,1.3c0.3,0.5,0.4,1.2,0.4,2c0,1.9-0.8,3.3-2.2,4.1c-1.4,0.8-3,1.2-4.7,1.2c-1.9,0-3.4-0.4-4.7-1.3
		c-1.3-0.9-2-2.4-2.2-4.4H24z"/>
	<path class="st2" d="M42.3,663.1h3.3v2.4h-3.3V676c0,0.6,0.1,1,0.4,1.2c0.3,0.2,0.8,0.3,1.6,0.3h1.2v2.4h-2c-1.4,0-2.4-0.2-3-0.7
		c-0.6-0.5-0.9-1.5-0.9-3v-10.7h-2.8v-2.4h2.8v-5h2.7V663.1z"/>
	<path class="st2" d="M48,671.6c0-2.5,0.7-4.6,2-6.3c1.3-1.7,3.3-2.5,5.9-2.5c2.6,0,4.6,0.9,5.9,2.5c1.3,1.7,2,3.7,2,6.3
		c0,2.5-0.7,4.6-2,6.2c-1.4,1.7-3.3,2.5-5.9,2.6c-2.6-0.1-4.5-0.9-5.9-2.6C48.7,676.1,48,674.1,48,671.6z M50.8,671.6
		c0,2,0.5,3.6,1.5,4.7c0.9,1.1,2.1,1.6,3.6,1.6c1.4,0,2.6-0.5,3.6-1.6c1-1.1,1.5-2.6,1.5-4.7c0-2.1-0.5-3.6-1.5-4.7
		c-0.9-1.1-2.1-1.6-3.6-1.6c-1.4,0-2.6,0.5-3.6,1.6C51.3,667.9,50.8,669.5,50.8,671.6z"/>
	<path class="st2" d="M67.4,663.1h2.5v3.5H70c1.2-2.7,3.2-4,6-3.9v2.9c-4,0.1-6,2.3-5.9,6.8v7.5h-2.7V663.1z"/>
	<path class="st2" d="M84.7,682.2c-0.6,1.6-1.2,2.8-1.9,3.4c-0.7,0.7-1.7,1-2.8,1c-0.6,0-1.3-0.1-1.9-0.3v-2.5
		c0.5,0.2,1.1,0.4,1.6,0.4c0.6,0,1-0.2,1.4-0.4c0.3-0.3,0.6-0.6,0.9-1.1l1.1-2.9l-6.6-16.7h3l4.7,13.7h0.1l4.6-13.7h2.8L84.7,682.2z
		"/>
</g>
</svg>
