<?xml version="1.0" encoding="utf-8"?>
<!-- Generator: Adobe Illustrator 25.0.1, SVG Export Plug-In . SVG Version: 6.00 Build 0)  -->
<svg version="1.1" id="Layer_1" xmlns="http://www.w3.org/2000/svg" xmlns:xlink="http://www.w3.org/1999/xlink" x="0px" y="0px"
	 width="154px" height="104px" viewBox="0 0 154 104" style="enable-background:new 0 0 154 104;" xml:space="preserve">
<style type="text/css">
	.st0{opacity:0.8;fill:#151515;stroke:#FFFFFF;stroke-width:0.75;stroke-miterlimit:10;enable-background:new    ;}
	.st1{fill:#FFFFFF;}
	.st2{fill:#151515;stroke:#FFFFFF;stroke-width:2;stroke-miterlimit:10;enable-background:new    ;}
</style>
<g>
	<path class="st0" d="M146.4,51.1H7.5c-3,0-5.5-3-5.5-6.7V7.6c0-3.7,2.5-6.7,5.5-6.7h139c3,0,5.5,3,5.5,6.7v36.8
		C151.9,48.1,149.5,51.1,146.4,51.1"/>
	<polygon class="st1" points="34.9,25.9 27.4,33.3 29.5,35.4 39.1,25.9 29.5,16.5 27.4,18.5 	"/>
	<path class="st1" d="M31.8,9c-9.5,0-17.2,7.6-17.2,17s7.7,17,17.2,17S49,35.4,49,26S41.3,9,31.8,9 M31.8,44.2
		c-10.2,0-18.4-8.1-18.4-18.2S21.7,7.8,31.8,7.8C42,7.8,50.2,15.9,50.2,26S42,44.2,31.8,44.2"/>
	<g>
		<path class="st1" d="M71.1,18h2.2l8.4,13.3l0,0V18h2v16.4h-2.3l-8.3-13.1l0,0v13.1h-2C71.1,34.4,71.1,18,71.1,18z"/>
	</g>
	<g>
		<path class="st1" d="M91.3,18h10.9v1.8h-8.9V25h8.3v1.8h-8.3v5.7h8.9v1.8h-11L91.3,18L91.3,18z"/>
	</g>
	<g>
		<path class="st1" d="M113,26l-5.4-8h2.5l4,6.4l4.1-6.4h2.4l-5.4,8l5.8,8.4h-2.6l-4.3-6.8l-4.4,6.8h-2.4L113,26z"/>
	</g>
	<g>
		<path class="st1" d="M130.3,19.9H125v-1.8h12.7v1.8h-5.3v14.5h-2.1L130.3,19.9L130.3,19.9z"/>
	</g>
</g>
<g>
	<path class="st2" d="M146.4,103.1H7.5c-3,0-5.5-3-5.5-6.7V59.6c0-3.7,2.5-6.7,5.5-6.7h139c3,0,5.5,3,5.5,6.7v36.8
		C151.9,100.1,149.5,103.1,146.4,103.1"/>
	<polygon class="st1" points="34.9,77.9 27.4,85.3 29.5,87.4 39.1,77.9 29.5,68.5 27.4,70.5 	"/>
	<path class="st1" d="M31.8,61c-9.5,0-17.2,7.6-17.2,17s7.7,17,17.2,17S49,87.4,49,78S41.3,61,31.8,61 M31.8,96.2
		c-10.2,0-18.4-8.1-18.4-18.2s8.3-18.2,18.4-18.2c10.2,0,18.4,8.1,18.4,18.2S42,96.2,31.8,96.2"/>
	<g>
		<path class="st1" d="M71.1,70h2.2l8.4,13.3l0,0V70h2v16.4h-2.3l-8.3-13.1l0,0v13.1h-2C71.1,86.4,71.1,70,71.1,70z"/>
	</g>
	<g>
		<path class="st1" d="M91.3,70h10.9v1.8h-8.9V77h8.3v1.8h-8.3v5.7h8.9v1.8h-11L91.3,70L91.3,70z"/>
	</g>
	<g>
		<path class="st1" d="M113,78l-5.4-8h2.5l4,6.4l4.1-6.4h2.4l-5.4,8l5.8,8.4h-2.6l-4.3-6.8l-4.4,6.8h-2.4L113,78z"/>
	</g>
	<g>
		<path class="st1" d="M130.3,71.9H125v-1.8h12.7v1.8h-5.3v14.5h-2.1L130.3,71.9L130.3,71.9z"/>
	</g>
</g>
</svg>
