<?xml version="1.0" encoding="utf-8"?>
<!-- Generator: Adobe Illustrator 25.0.1, SVG Export Plug-In . SVG Version: 6.00 Build 0)  -->
<svg version="1.1" id="Layer_1" xmlns="http://www.w3.org/2000/svg" xmlns:xlink="http://www.w3.org/1999/xlink" x="0px" y="0px"
	 width="67.19px" height="22.34px" viewBox="0 0 67.19 22.34" style="enable-background:new 0 0 67.19 22.34;" xml:space="preserve"
	>
<style type="text/css">
	.st0{opacity:0.8;fill:#151515;enable-background:new    ;}
	.st1{fill:none;stroke:#FFFFFF;stroke-width:0.5;}
	.st2{fill:#F3F3EB;}
</style>
<g>
	<path class="st0" d="M63.88,22.09H3.31c-1.32,0-2.4-1.3-2.4-2.9V3.15c0-1.6,1.07-2.9,2.4-2.9h60.58c1.32,0,2.4,1.3,2.4,2.9v16.04
		C66.28,20.79,65.21,22.09,63.88,22.09"/>
	<path class="st1" d="M63.88,22.09H3.31c-1.32,0-2.4-1.3-2.4-2.9V3.15c0-1.6,1.07-2.9,2.4-2.9h60.58c1.32,0,2.4,1.3,2.4,2.9v16.04
		C66.28,20.79,65.21,22.09,63.88,22.09"/>
	<g>
		<path class="st2" d="M11.04,7.68h0.98l3.64,5.79h0.02V7.68h0.87v7.14h-1.01l-3.61-5.73h-0.02v5.73h-0.87
			C11.04,14.82,11.04,7.68,11.04,7.68z"/>
	</g>
	<g>
		<path class="st2" d="M19.87,7.68h4.77v0.8h-3.86v2.27h3.6v0.8h-3.6v2.47h3.88v0.8h-4.8L19.87,7.68L19.87,7.68z"/>
	</g>
	<g>
		<path class="st2" d="M29.3,11.15l-2.35-3.47h1.1l1.73,2.79l1.8-2.79h1.03l-2.36,3.47l2.51,3.67h-1.12l-1.86-2.95l-1.92,2.95h-1.04
			L29.3,11.15z"/>
	</g>
	<g>
		<path class="st2" d="M36.86,8.49h-2.31v-0.8h5.53v0.8h-2.3v6.34h-0.92V8.49z"/>
	</g>
</g>
</svg>
