<?xml version="1.0" encoding="utf-8"?>
<!-- Generator: Adobe Illustrator 25.0.1, SVG Export Plug-In . SVG Version: 6.00 Build 0)  -->
<svg version="1.1" id="Layer_1" xmlns="http://www.w3.org/2000/svg" xmlns:xlink="http://www.w3.org/1999/xlink" x="0px" y="0px"
	 width="154px" height="104px" viewBox="0 0 154 104" style="enable-background:new 0 0 154 104;" xml:space="preserve">
<style type="text/css">
	.st0{opacity:0.8;fill:#151515;stroke:#FFFFFF;stroke-width:0.75;stroke-miterlimit:10;enable-background:new    ;}
	.st1{fill:#FFFFFF;}
	.st2{fill:#151515;stroke:#FFFFFF;stroke-width:2;stroke-miterlimit:10;enable-background:new    ;}
</style>
<g>
	<path class="st0" d="M146.4,51.1H7.5c-3,0-5.5-3-5.5-6.7V7.6c0-3.7,2.5-6.7,5.5-6.7h139c3,0,5.5,3,5.5,6.7v36.8
		C151.9,48.1,149.5,51.1,146.4,51.1"/>
	<g>
		<path class="st1" d="M21.1,18h2.2l8.4,13.3l0,0V18h2v16.4h-2.3l-8.3-13.1l0,0v13.1h-2C21.1,34.4,21.1,18,21.1,18z"/>
	</g>
	<g>
		<path class="st1" d="M41.3,18h10.9v1.8h-8.9V25h8.3v1.8h-8.3v5.7h8.9v1.8h-11L41.3,18L41.3,18z"/>
	</g>
	<g>
		<path class="st1" d="M63,26l-5.4-8h2.5l4,6.4l4.1-6.4h2.4l-5.4,8l5.8,8.4h-2.6l-4.3-6.8l-4.4,6.8h-2.4L63,26z"/>
	</g>
	<g>
		<path class="st1" d="M80.3,19.9H75v-1.8h12.7v1.8h-5.3v14.5h-2.1L80.3,19.9L80.3,19.9z"/>
	</g>
</g>
<g>
	<path class="st2" d="M146.4,103.1H7.5c-3,0-5.5-3-5.5-6.7V59.6c0-3.7,2.5-6.7,5.5-6.7h139c3,0,5.5,3,5.5,6.7v36.8
		C151.9,100.1,149.5,103.1,146.4,103.1"/>
	<g>
		<path class="st1" d="M21.1,70h2.2l8.4,13.3l0,0V70h2v16.4h-2.3l-8.3-13.1l0,0v13.1h-2C21.1,86.4,21.1,70,21.1,70z"/>
	</g>
	<g>
		<path class="st1" d="M41.3,70h10.9v1.8h-8.9V77h8.3v1.8h-8.3v5.7h8.9v1.8h-11L41.3,70L41.3,70z"/>
	</g>
	<g>
		<path class="st1" d="M63,78l-5.4-8h2.5l4,6.4l4.1-6.4h2.4l-5.4,8l5.8,8.4h-2.6l-4.3-6.8l-4.4,6.8h-2.4L63,78z"/>
	</g>
	<g>
		<path class="st1" d="M80.3,71.9H75v-1.8h12.7v1.8h-5.3v14.5h-2.1L80.3,71.9L80.3,71.9z"/>
	</g>
</g>
</svg>
