<?xml version="1.0" encoding="utf-8"?>
<!-- Generator: Adobe Illustrator 25.0.1, SVG Export Plug-In . SVG Version: 6.00 Build 0)  -->
<svg version="1.1" id="Layer_1" xmlns="http://www.w3.org/2000/svg" xmlns:xlink="http://www.w3.org/1999/xlink" x="0px" y="0px"
	 width="154px" height="104px" viewBox="0 0 154 104" style="enable-background:new 0 0 154 104;" xml:space="preserve">
<style type="text/css">
	.st0{opacity:0.8;fill:#151515;stroke:#FFFFFF;stroke-width:0.75;stroke-miterlimit:10;enable-background:new    ;}
	.st1{fill:#151515;stroke:#FFFFFF;stroke-width:2;stroke-miterlimit:10;enable-background:new    ;}
	.st2{fill:#FFFFFF;}
</style>
<path class="st0" d="M146.4,51.1H7.5c-3,0-5.5-3-5.5-6.7V7.6c0-3.7,2.5-6.7,5.5-6.7h139c3,0,5.5,3,5.5,6.7v36.8
	C151.9,48.1,149.5,51.1,146.4,51.1"/>
<path class="st1" d="M146.4,103.1H7.5c-3,0-5.5-3-5.5-6.7V59.6c0-3.7,2.5-6.7,5.5-6.7h139c3,0,5.5,3,5.5,6.7v36.8
	C151.9,100.1,149.5,103.1,146.4,103.1"/>
<g>
	<g>
		<g>
			<g>
				<path class="st2" d="M73.5,18.2h6.8c3.1,0,4.7,1.6,4.8,4.7c0,3.1-1.6,4.7-4.8,4.7h-4.7v6.6h-2.1V18.2z M75.6,25.8h4
					c2.3,0,3.4-1,3.4-2.9c0-2-1.1-2.9-3.4-2.9h-4V25.8z"/>
			</g>
			<g>
				<path class="st2" d="M91.7,18.2H99c3.1,0.1,4.7,1.5,4.7,4.2c0,1-0.2,1.8-0.6,2.5c-0.4,0.7-1.1,1.2-2.1,1.5v0
					c0.4,0.1,0.8,0.2,1.1,0.4c0.3,0.2,0.5,0.5,0.7,0.8c0.3,0.6,0.5,1.3,0.5,2.1c0,0.8,0.1,1.6,0.2,2.4c0,0.4,0.1,0.7,0.2,1.1
					c0.1,0.4,0.3,0.7,0.5,1H102c-0.1-0.2-0.2-0.4-0.2-0.7c0-0.3-0.1-0.6-0.1-0.9c0-0.4,0-0.7,0-1.1c0-0.4-0.1-0.8-0.2-1.2
					c0-0.4-0.1-0.8-0.2-1.1c-0.1-0.3-0.2-0.7-0.4-0.9s-0.4-0.5-0.7-0.6c-0.3-0.1-0.7-0.2-1.2-0.2h-5.1v6.9h-2.1
					C91.7,34.2,91.7,18.2,91.7,18.2z M98.1,25.6c1,0,1.8-0.2,2.5-0.6c0.3-0.2,0.6-0.5,0.8-0.9c0.2-0.4,0.3-0.8,0.3-1.4
					c0-0.8-0.2-1.5-0.6-2c-0.4-0.5-1.2-0.7-2.1-0.8h-5.1v5.6H98.1z"/>
			</g>
			<g>
				<path class="st2" d="M110.7,18.2h10.7V20h-8.7v5.1h8.1v1.8h-8.1v5.6h8.7v1.8h-10.8L110.7,18.2L110.7,18.2z"/>
			</g>
			<g>
				<path class="st2" d="M134.2,34.2h-2.4l-5.5-16.1h2.2l4.5,13.9h0l4.5-13.9h2.2L134.2,34.2z"/>
			</g>
		</g>
	</g>
</g>
<g>
	<g>
		<g>
			<g>
				<path class="st2" d="M73.5,70.2h6.8c3.1,0,4.7,1.6,4.8,4.7c0,3.1-1.6,4.7-4.8,4.7h-4.7v6.6h-2.1V70.2z M75.6,77.8h4
					c2.3,0,3.4-1,3.4-2.9c0-2-1.1-2.9-3.4-2.9h-4V77.8z"/>
			</g>
			<g>
				<path class="st2" d="M91.7,70.2H99c3.1,0.1,4.7,1.5,4.7,4.2c0,1-0.2,1.8-0.6,2.5c-0.4,0.7-1.1,1.2-2.1,1.5v0
					c0.4,0.1,0.8,0.2,1.1,0.4c0.3,0.2,0.5,0.5,0.7,0.8c0.3,0.6,0.5,1.3,0.5,2.1c0,0.8,0.1,1.6,0.2,2.4c0,0.4,0.1,0.7,0.2,1.1
					c0.1,0.4,0.3,0.7,0.5,1H102c-0.1-0.2-0.2-0.4-0.2-0.7c0-0.3-0.1-0.6-0.1-0.9c0-0.4,0-0.7,0-1.1c0-0.4-0.1-0.8-0.2-1.2
					c0-0.4-0.1-0.8-0.2-1.1c-0.1-0.3-0.2-0.7-0.4-0.9c-0.2-0.3-0.4-0.5-0.7-0.6c-0.3-0.1-0.7-0.2-1.2-0.2h-5.1v6.9h-2.1
					C91.7,86.2,91.7,70.2,91.7,70.2z M98.1,77.6c1,0,1.8-0.2,2.5-0.6c0.3-0.2,0.6-0.5,0.8-0.9c0.2-0.4,0.3-0.8,0.3-1.4
					c0-0.8-0.2-1.5-0.6-2c-0.4-0.5-1.2-0.7-2.1-0.8h-5.1v5.6H98.1z"/>
			</g>
			<g>
				<path class="st2" d="M110.7,70.2h10.7V72h-8.7v5.1h8.1v1.8h-8.1v5.6h8.7v1.8h-10.8L110.7,70.2L110.7,70.2z"/>
			</g>
			<g>
				<path class="st2" d="M134.2,86.2h-2.4l-5.5-16.1h2.2l4.5,13.9h0l4.5-13.9h2.2L134.2,86.2z"/>
			</g>
		</g>
	</g>
</g>
</svg>
