<?xml version="1.0" encoding="utf-8"?>
<!-- Generator: Adobe Illustrator 25.0.1, SVG Export Plug-In . SVG Version: 6.00 Build 0)  -->
<svg version="1.1" id="Layer_1" xmlns="http://www.w3.org/2000/svg" xmlns:xlink="http://www.w3.org/1999/xlink" x="0px" y="0px"
	 width="67.19px" height="22.34px" viewBox="0 0 67.19 22.34" style="enable-background:new 0 0 67.19 22.34;" xml:space="preserve"
	>
<style type="text/css">
	.st0{opacity:0.8;fill:#151515;enable-background:new    ;}
	.st1{fill:none;stroke:#FFFFFF;stroke-width:0.5;}
	.st2{fill:#F3F3EB;}
</style>
<path class="st0" d="M64.49,22.09H2.7c-1.35,0-2.45-1.3-2.45-2.9V3.15c0-1.6,1.1-2.9,2.45-2.9h61.8c1.35,0,2.45,1.3,2.45,2.9v16.04
	C66.94,20.79,65.84,22.09,64.49,22.09"/>
<path class="st1" d="M64.49,22.09H2.7c-1.35,0-2.45-1.3-2.45-2.9V3.15c0-1.6,1.1-2.9,2.45-2.9h61.8c1.35,0,2.45,1.3,2.45,2.9v16.04
	C66.94,20.79,65.84,22.09,64.49,22.09"/>
<g>
	<g>
		<path class="st2" d="M29.83,7.68h3.03c1.4,0.02,2.11,0.72,2.12,2.11c-0.01,1.37-0.72,2.07-2.12,2.11h-2.11v2.92h-0.92V7.68z
			 M30.75,11.1h1.8c1.02-0.01,1.52-0.44,1.51-1.31c0.01-0.87-0.5-1.3-1.51-1.31h-1.8V11.1z"/>
	</g>
	<g>
		<path class="st2" d="M37.91,7.68h3.26c1.38,0.03,2.08,0.65,2.1,1.87c0,0.43-0.09,0.81-0.28,1.13c-0.2,0.33-0.51,0.55-0.92,0.68
			v0.02c0.2,0.04,0.37,0.1,0.5,0.19c0.12,0.09,0.22,0.21,0.3,0.34c0.13,0.27,0.21,0.58,0.23,0.94s0.05,0.71,0.09,1.06
			c0.02,0.17,0.05,0.33,0.1,0.48c0.05,0.16,0.12,0.3,0.21,0.43h-1.02c-0.06-0.08-0.09-0.19-0.11-0.32
			c-0.02-0.12-0.04-0.26-0.05-0.42c-0.01-0.16-0.02-0.33-0.02-0.5c-0.01-0.17-0.03-0.34-0.07-0.52c-0.02-0.18-0.05-0.35-0.09-0.51
			c-0.04-0.15-0.1-0.29-0.18-0.41c-0.08-0.12-0.19-0.21-0.33-0.28c-0.14-0.06-0.33-0.09-0.55-0.09h-2.25v3.05h-0.92
			C37.91,14.82,37.91,7.68,37.91,7.68z M40.75,10.97c0.45,0.01,0.82-0.08,1.12-0.25c0.15-0.1,0.27-0.23,0.36-0.4
			c0.08-0.16,0.12-0.37,0.12-0.62c0-0.36-0.09-0.65-0.28-0.88c-0.2-0.22-0.52-0.33-0.95-0.34h-2.29v2.49H40.75z"/>
	</g>
	<g>
		<path class="st2" d="M46.36,7.68h4.77v0.8h-3.86v2.27h3.6v0.8h-3.6v2.47h3.88v0.8h-4.8L46.36,7.68L46.36,7.68z"/>
	</g>
	<g>
		<path class="st2" d="M56.79,14.82h-1.05L53.3,7.68h1l1.98,6.19h0.02l2-6.19h0.96L56.79,14.82z"/>
	</g>
</g>
</svg>
