<?xml version="1.0" encoding="utf-8"?>
<!-- Generator: Adobe Illustrator 25.0.1, SVG Export Plug-In . SVG Version: 6.00 Build 0)  -->
<svg version="1.1" id="Layer_1" xmlns="http://www.w3.org/2000/svg" xmlns:xlink="http://www.w3.org/1999/xlink" x="0px" y="0px"
	 width="792px" height="270.2px" viewBox="0 0 792 270.2" style="enable-background:new 0 0 792 270.2;" xml:space="preserve">
<style type="text/css">
	.st0{fill-rule:evenodd;clip-rule:evenodd;fill:#E01F26;}
	.st1{fill-rule:evenodd;clip-rule:evenodd;}
	.st2{fill-rule:evenodd;clip-rule:evenodd;fill:#878888;}
	.st3{fill:#E01F26;}
	.st4{opacity:0.5;}
	.st5{opacity:0.75;clip-path:url(#SVGID_2_);}
	.st6{clip-path:url(#SVGID_4_);fill-rule:evenodd;clip-rule:evenodd;fill:#FFFFFF;}
	.st7{opacity:0.2;}
	.st8{clip-path:url(#SVGID_6_);fill-rule:evenodd;clip-rule:evenodd;fill:#262324;}
</style>
<g>
	<path class="st0" d="M130.8,199.8c-2.2-3.5-3.3-7.5-3.3-12l0.2-2.6c0.6-6.7,3.6-14.2,8.9-22.4c2.7-4.1,6.5-8.4,11.2-12.8
		C145.3,167.4,139.6,184,130.8,199.8z M99.6,16.2c4.1,3.5,7.9,7.4,11.6,11.8c11.7,14.2,21,30.9,28.1,50c6.6,18.1,10,35.8,10,53
		c-5.3,2.6-10.8,5.9-16.5,9.9c-5,3.4-9.3,7-12.9,10.8c-14.2,14-21.3,27.9-21.3,41.6c0,2.7,0.3,5.3,0.8,7.8
		c1.8,9.2,5.6,15.9,11.3,20.2c1.2,0.9,2.5,1.7,3.9,2.5c-0.4,0.4-0.7,0.8-1,1.2c-9.5,11.6-18.6,20.5-27.3,26.7
		c-2.2-2.3-4.6-5.5-7.2-9.6c-5.2-8.1-8.8-16.6-10.7-25.3c-1.2-5-1.4-12.4-0.8-22c0.5-8.3,1.4-15.9,2.7-22.7c1-4.7,5-16.2,12-34.3
		c7.2-17.9,11.1-27.7,11.7-29.6c0.8-2.4,1.6-6.2,2.3-11.6l0.8-7.4c4.4,3.3,7.4,12.8,9,28.7c0.8,8,1.1,15.5,1,22.8
		c3.9-9,6.6-19,8-30.2c1.4-10.9,1.4-21.7,0-32.3c-1.9-14.8-6-30.2-12.1-46.3l-8.6-19.7L99.6,16.2z"/>
	<path class="st1" d="M622.2,195.5c0-3.3-2.2-5.1-6.5-5.2c-3.8-0.1-7.6,2.3-11.3,7.2c-1.8,2.5-3.3,5.1-4.6,7.8
		c-0.2,0.4-0.4,1-0.4,1.6c0,1.3,0.5,2.3,1.6,2.9c2.6,1.5,6.7,0.6,12.4-2.5c1.6-0.9,3.4-2.4,5.2-4.6c2.1-2.4,3.2-4.5,3.4-6.3
		L622.2,195.5z M744.4,193c0.2-0.4,0.4-0.9,0.4-1.5c0-1.3-0.6-2.3-1.7-3c-2.7-1.5-6.9-0.5-12.7,2.9c-1.6,1-3.4,2.6-5.2,4.8
		c-2.1,2.6-3.2,4.7-3.3,6.6l-0.1,0.8c0,2.2,0.7,3.7,2.2,4.6c1,0.6,2.6,0.9,4.6,0.9c4,0,7.8-2.6,11.4-7.7
		C741.9,198.7,743.3,195.9,744.4,193z M690.8,183.2h12.1l-10.9,21c-0.4,0.7-0.5,1.5-0.5,2.4c0,1.5,0.5,2.6,1.5,3.4
		c0.8,0.6,1.7,0.8,2.6,0.6c3.3-0.7,7.3-2.6,11.9-5.6l0.2-0.2l0.1-0.2c0.8-4,2.9-7.9,6.5-11.7c3.5-3.8,7.6-6.7,12.4-8.7
		c4.1-1.7,7.9-2.5,11.5-2.4c3.5,0.1,6.3,1.2,8.4,3.1l0.5,0.5l0.5-0.5l1.7-2.1l12.7,0.5l-0.3,0.5v0.1l-9.6,21
		c-0.4,0.9-0.6,1.8-0.6,2.9c0,1.3,0.4,2.2,1.1,2.8c0.7,0.5,1.6,0.7,2.6,0.5c3.3-0.7,8.6-3.9,15.9-9.7l0.9-0.6
		c0.7-0.5,1.1-0.7,1.4-0.6l0.2,0.5l-0.1,0.5c-0.2,0.4-0.8,1.2-1.9,2.5c-1.2,1.5-2.2,2.6-2.8,3.2c-3.5,3.5-7.4,6.3-11.8,8.5
		c-4,1.9-8,3.1-11.9,3.5c-3.3,0.2-6.2-0.1-8.7-0.9c-1.6-0.6-2.9-1.9-3.8-3.7l-0.2-0.6l-4,1.8c-3.1,1.4-6.1,2.2-9,2.4
		c-2.9,0.2-5.3-0.2-7.2-1.3c-2.5-1.4-3.9-3.6-4.4-6.6v-0.2l-0.2-1l-0.8,0.6c-3.3,2.3-6,3.9-8.3,4.8c-8.9,3.6-15.2,4.6-18.9,3
		c-1.3-0.7-2.2-1.6-2.6-2.8l-0.2-0.6l-0.6,0.3c-5.3,2.4-10.7,3.8-16.2,4c-4.3,0.2-7.3-0.6-9.2-2.4c-1.3-1.3-2-3-2-5.1
		c0.1-1.6,0.7-3.2,1.9-4.7c0.9-1,2.9-2.9,6-5.7l2.2-1.9c1.3-1.2,1.9-2.1,1.9-2.8c0-0.6-0.3-1.1-1-1.4c-1.9-1-4.3-1.7-6.9-2.1
		l-0.5-0.1l-0.2,0.4c-3.3,5.6-7.2,10.3-11.7,14.1c-6.5,5.5-13.8,8.7-22,9.6h-0.2l-0.1,0.1l-1.5,0.7c-5.8,2-11,2-15.4,0l-0.2-0.2
		l-0.3,0.2c-2.7,1.2-5,1.7-6.8,1.7c-2-0.1-3.7-0.8-5-2.2c-1.2-1.2-1.7-2.5-1.7-3.9c0-0.5,0.1-0.9,0.3-1.3l1.8-3.8l-1.8,1.1
		c-3.8,2.3-7.3,4.3-10.5,5.8c-4.8,2.4-8.4,3.9-10.8,4.5c-2.5,0.6-4.6,0.6-6.5-0.1c-1.8-0.7-3.1-2-3.9-4.1l-0.3-0.6l-0.5,0.4
		l-3.1,1.4c-3.1,1.4-6.1,2.2-9,2.4c-2.9,0.2-5.3-0.2-7.3-1.3c-2.4-1.4-3.8-3.6-4.4-6.6l-0.1-1.6c0-0.9,0.1-1.7,0.3-2.6l0.3-1.6
		l-1.3,1c-4.3,3.2-8,5.7-11.2,7.4c-2.9,1.5-6.3,2.6-10.3,3.3l-2,0.1c-1.8-0.1-3.2-0.6-4.2-1.7c-0.8-0.9-1.2-2-1.2-3.4
		c0-0.8,0.1-1.4,0.4-1.9l0.7-1.8l-1.6,1c-4.2,2.6-7.9,4.6-11,6.2c-4.8,2.4-8.4,3.9-10.8,4.5c-2.5,0.6-4.6,0.6-6.5-0.1
		c-1.8-0.7-3.1-2-3.9-4.1l-0.2-0.6l-3.7,1.7c-3.1,1.4-6.1,2.2-9,2.4c-2.9,0.2-5.3-0.2-7.3-1.3c-2.4-1.4-3.8-3.6-4.4-6.6l-0.1-1.6
		l0.2-2.5l0.3-1.4l-1.2,0.7c-5.5,3.2-11.5,6.5-17.9,9.7c-9.7,4.5-18,6.9-24.9,7.1l-3.8,0.1c-9.4,0-16.6-1.9-21.8-5.6
		c-5.1-3.8-8.5-9.8-10.2-17.9c-0.5-2.4-0.7-4.8-0.7-7c0-12.6,6.8-25.4,20.5-38.6c3.5-3.5,7.7-7,12.7-10.4
		c8.9-6.1,17.1-10.7,24.4-13.6c7.3-2.9,14.3-4.4,20.8-4.4c2.7,0,5,0.2,6.8,0.5c7.4,1.2,12.8,4.5,16.1,10c1.7,2.9,2.6,6.2,2.6,9.7
		c0,2.8-0.5,5.6-1.5,8.5c-1.2,3.6-4.3,8-9.4,13.1c-2.9,2.9-6.3,5.4-10.5,7.7c-7.9,4.3-15,6.5-21.4,6.5l-4-0.3
		c-4.5-0.8-7.7-3.4-9.5-7.7c-0.7-1.8-1.1-3.7-1.1-5.7c0-2.9,0.8-5.6,2.3-8.4c2.4-4.1,7-7.7,14-11c2.4-1.1,4.7-1.8,6.9-2
		c1.9-0.2,3-0.1,3.4,0.4l0.2,0.5c0,0.1-0.1,0.3-0.3,0.5l-1,0.5c-1.5,0.6-3.1,1.4-4.9,2.5c-3.4,2-6,4.1-7.9,6.4
		c-0.2,0.2-0.6,0.8-1.3,1.7c-0.9,1.1-1.5,2-1.8,2.7c-0.5,1.3-0.7,2.4-0.7,3.5c0,1.5,0.4,2.8,1.1,3.9c1.5,2.9,4.3,4.6,8.4,5.3
		c3.4,0.4,6.6,0.1,9.7-0.9c3.1-1,6.3-2.8,9.7-5.5c2.3-1.6,4.7-4.3,7.1-7.8c3.5-5.6,5.2-10.5,5.2-14.5V144c-0.1-4.4-1.5-7.8-4.3-10.1
		c-3.8-3.2-9.8-4.1-17.9-2.8c-8.4,1.5-17.9,6.7-28.5,15.7c-6.5,5.5-11.4,10.9-14.8,16c-5.3,8.2-8.3,15.7-8.9,22.4l-0.1,2.6
		c0,6,1.8,10.9,5.5,14.9c2.5,2.8,5.7,4.8,9.6,6c3.8,1.2,8,1.6,12.5,1.1c3-0.4,6.1-1,9.3-2c3-1,7.2-2.9,12.6-5.5
		c5.9-2.9,10.8-5.7,14.8-8.4l0.1-0.1c3.6-4.1,7.9-7.1,12.8-9.2c4.1-1.7,7.9-2.5,11.5-2.4c3.5,0.1,6.3,1.1,8.5,3l0.5,0.5l0.5-0.5
		l1.5-1.9h13.6l-10.6,19.9c-0.7,1.3-1.1,2.4-1.1,3.3c0,0.7,0.2,1.2,0.7,1.7c0.5,0.5,1.3,0.7,2.5,0.5c1.9-0.3,6.7-2.7,14.3-7.3
		l0.2-0.1l0.1-0.2c11.3-23.1,17.6-35.7,19-37.8h12.3c-12.5,24.5-19,37.6-19.7,39.1c-0.5,1.3-0.8,2.2-0.8,2.7c0,0.7,0.2,1.1,0.5,1.4
		c0.5,0.4,1.3,0.6,2.4,0.5c1.7-0.2,6.9-3.4,15.5-9.6h0.1v-0.1c3.9-5.8,9.1-10.1,15.7-12.8c4.1-1.7,7.9-2.5,11.5-2.4
		c3.5,0.1,6.3,1.1,8.5,3l0.5,0.5l0.5-0.5l1.5-1.9h13.6l-10.6,19.9c-0.7,1.1-1.1,2.2-1.1,3.3c0,0.7,0.2,1.2,0.7,1.7
		c0.5,0.5,1.3,0.7,2.5,0.5c2-0.4,6.6-2.6,13.7-6.8l0.2-0.1l0.1-0.2c5.4-11.4,9.7-20.3,12.8-26.6c2.8-5.8,4.5-9.1,5.1-9.9h12.2
		c-0.6,1.2-4.1,8.7-10.5,22.4l0.3-0.1c2.9-1.2,5.7-1.8,8.6-1.9c2.9-0.1,5.3,0.4,7.5,1.5c2.9,1.5,4.6,3.6,5.4,6.5
		c0.3,0.8,0.5,1.9,0.5,3.2c0,3.6-1.4,7.2-4.3,10.6l0.8,1c8.2-4.8,13.9-12.4,17.1-22.9l1.4-4.8c3.9,2.6,7.3,4.2,9.9,5
		c4.6,1.3,9.6,1.3,15.1-0.2l1.4-0.4l-7.1,13.3c-2.9,5.2-4.4,8.7-4.4,10.3c0,0.5,0.1,1,0.3,1.5c0.6,1.3,1.9,2.1,4,2.5
		c2.4,0.3,5.3-0.1,8.7-1.2l0.4-0.1l0.4-1.4C684.9,193.6,689.6,184.6,690.8,183.2z M697.9,177.9c-1-0.4-1.6-1.3-2-2.6l-0.2-1.4
		c0-3,1.6-5.7,4.9-8.3c1-0.9,2.2-1.5,3.7-1.6c1.1-0.1,2.1,0.3,2.9,1c0.9,0.9,1.4,2.1,1.4,3.6v0.4c0,2-1.2,4.3-3.6,6.8
		c-1.2,1-2.1,1.6-2.7,1.8C700.4,178.3,698.9,178.4,697.9,177.9z M481.3,191.4c0-1.3-0.6-2.2-1.8-2.9c-2.7-1.5-6.9-0.5-12.7,2.9
		c-1.6,1-3.4,2.6-5.2,4.8c-2.1,2.6-3.2,4.7-3.3,6.6v0.8c0,2.2,0.7,3.7,2.2,4.6c1,0.6,2.5,0.9,4.6,0.9c4,0,7.8-2.6,11.4-7.7
		c2.9-5.3,4.4-8,4.5-8.3C481.2,192.4,481.3,191.9,481.3,191.4z M563.5,201.3c2.9-5.3,4.4-8,4.5-8.3c0.2-0.6,0.4-1.2,0.4-1.6
		c0-1.3-0.6-2.2-1.8-2.9c-2.7-1.5-6.9-0.5-12.7,2.9c-1.6,1-3.4,2.6-5.2,4.8c-2.1,2.6-3.2,4.7-3.3,6.6v0.8c0,2.2,0.7,3.7,2.2,4.6
		c1,0.6,2.5,0.9,4.6,0.9C556.2,209,559.9,206.5,563.5,201.3z M147.9,149.9c-4.7,4.4-8.5,8.7-11.2,12.8c-5.3,8.2-8.3,15.7-8.9,22.4
		l-0.2,2.6c0,4.5,1.1,8.5,3.3,12c0.7,1,1.4,2,2.2,2.9c2.6,2.8,5.7,4.8,9.6,6c0.3,0.1,0.6,0.2,1,0.3c3.5,1,7.3,1.2,11.5,0.8
		c3-0.4,6.2-1,9.4-2c2.5-0.9,5.9-2.3,10.2-4.3c4.7-2.2,8.9-4.5,12.8-6.8l0.2-0.2c3.8-5.3,8.7-9.2,14.9-11.8
		c4.1-1.7,7.9-2.5,11.5-2.4c3.6,0.1,6.4,1.1,8.5,3l0.5,0.5l0.5-0.5l1.5-1.9h13.6l-0.2,0.5l-10.4,19.5c-0.7,1.3-1.1,2.4-1.1,3.3
		c0,0.6,0.2,1.2,0.6,1.6l0.1,0.1c0.5,0.5,1.4,0.7,2.5,0.5c2.1-0.4,7.5-3.2,16.2-8.5c8.1-16.6,14.1-28.4,17.9-35.3l0.9-1.7h12.4
		l-20.9,41.1h0.1v0.1c0,0.7,0.2,1.1,0.5,1.4c0.4,0.4,1.2,0.6,2.3,0.5c2.4-0.4,8.8-4.5,19.3-12.3l7.7-15.4c5-10.1,7.5-15.2,7.6-15.3
		l12.9,0.1c-13.5,26.4-20.6,40.4-21.3,41.9c0.2,0.3,0.3,0.5,0.4,0.5c0.5,0.4,1.3,0.6,2.4,0.5c1.7-0.2,6.6-3.3,14.8-9l0.1-0.1
		l0.1-0.2c2.2-3.6,5.6-6.8,10-9.6c4.4-2.7,8.7-4.3,12.9-4.6c5.3-0.4,8.9,0.3,10.8,2.1c1,1,1.5,2.1,1.5,3.5c0,1.3-0.4,2.8-1.3,4.3
		c-0.7,1.3-1.6,2.4-2.6,3.4c-4.3,3.9-10.1,7.3-17.4,10.2l-0.3,0.1l-0.1,0.2l-0.2,0.6c-0.2,0.5-0.3,1-0.3,1.5c0,3,2.5,4.8,7.4,5.2
		c2.7,0.2,6-0.2,9.7-1.2c3.8-1,7-2.2,9.6-3.7c0.7-0.4,1.7-1,3-2c2.3-1.6,3.7-2.4,4.1-2.4c0.3,0,0.5,0.2,0.5,0.5
		c0,0.3-0.2,0.7-0.5,1.1c-0.1,0.1-2.2,1.8-6.4,5.1c-5.3,3.5-11.2,6-17.7,7.3c-5.8,1.2-11,0.9-15.7-0.8c-4.7-1.8-7.7-4.5-9-8.3
		c-0.5-1.5-0.7-2.9-0.7-4.2l0.2-2.5l-1.1,0.9c-4.4,3.3-8.2,5.8-11.4,7.5l-1.4,0.7l-0.5,0.2l0.1,0.5l0.1,2c0,6.2-2.5,13.8-7.5,22.8
		c-2.1,3.6-4.9,7.3-8.7,11l-3.5,3.6c-3,2.5-6,4-9,4.5c-1.9,0.2-3.6-0.2-5-1.5c-1.5-1.2-2.1-2.6-1.8-4.1c0.2-1,0.3-1.5,0.4-1.6
		c7-15.1,13.9-29.1,20.6-42.1l4-7.7c-7.7,6.1-13.3,10.1-16.7,11.8l-1.9,0.9l0.1,2.5c0,6.5-2.5,14.1-7.5,22.8
		c-2.9,5.3-6.6,9.7-11,13.4c-3.8,3.1-7.5,5-11.1,5.7c-4.1-0.1-6.1-2-6.1-5.6c0-0.5,0.1-1,0.4-1.6l21.1-43.9l-1,0.7
		c-5.4,3.3-9.9,5.9-13.5,7.7c-1.8,0.9-3.3,1.6-4.7,2.3c-2.6,1.1-4.6,1.8-6.1,2.2c-2.5,0.6-4.6,0.6-6.5-0.1c-1.7-0.6-3-2-3.8-4.1
		l-0.3-0.6l-0.6,0.4l-3.1,1.4c-3.1,1.4-6.1,2.2-9,2.4c-2.9,0.2-5.3-0.2-7.2-1.3c-2.5-1.4-3.9-3.6-4.4-6.6l-0.2-1.6l0.2-2.4l-1.1,0.6
		c-3.2,1.9-8.7,4.8-16.5,8.7c-9.1,4.3-17.1,6.5-23.9,6.7l-3.8,0.1c-9.4,0-16.6-1.9-21.8-5.6c-5.1-3.8-8.5-9.8-10.2-17.9
		c-0.5-2.4-0.7-4.8-0.7-7c0-12.6,6.8-25.4,20.5-38.6c3.5-3.5,7.7-7,12.7-10.4c16.7-11.5,31.8-17.3,45.2-17.3c2.3,0,4.6,0.2,6.8,0.5
		c2.6,0.4,5,1,7.1,1.8c3.9,1.6,6.9,4.1,8.9,7.5c1.8,2.9,2.6,6.1,2.6,9.7c0,2.5-0.5,5.4-1.5,8.5c-0.4,1-0.9,2.1-1.5,3.2
		c-1.6,2.9-4.3,6.2-7.9,9.9c-3.1,3-6.6,5.5-10.5,7.7c-7.8,4.3-15.3,6.5-22.5,6.5c-1.6,0-3-0.1-4.2-0.4c-2.3-0.4-4.4-1.2-6.2-2.5
		c-1.8-1.3-3.1-3-4-5c-0.8-1.8-1.2-3.7-1.2-5.7c0-3,0.8-5.7,2.5-8.3c2.9-4.8,7.9-8.5,14.9-11.1c2.7-1,5.6-1.7,8.7-2.3l1.1,0.1h0.4
		c0.7,0,1,0.2,1.1,0.5l0.1,0.1l-0.1,0.2v0.1l-0.1,0.1v0.3l-0.1,0.4v0.1l-0.1,0.1l-5.6,2c-2.4,0.9-4.7,2.7-7.1,5.3
		c-1.2,1.2-2.1,2.6-2.8,4.2c-0.5,1.2-0.7,2.2-0.7,3.3v0.1c0,1.3,0.3,2.5,1,3.6c0.5,1,1.3,1.9,2.2,2.6c1.5,1.2,3.4,1.9,5.7,2.3
		c3.2,0.4,6.3,0.2,9.2-0.8c2.9-0.9,6-2.6,9.2-5.2c2.2-1.6,4.4-4,6.7-7.4c3.2-5.3,4.8-9.9,4.8-13.7V143c0-4.1-1.3-7.3-3.8-9.5
		c-3.5-2.9-9.2-3.7-17.2-2.5c-0.6,0.1-1.2,0.2-1.8,0.4c-8,1.8-16.9,6.9-26.8,15.3C150.2,147.8,149,148.9,147.9,149.9z M320.1,170.5
		c-1.8-2.4-2.9-4.5-3.5-6.1l8.3-4c0.8,4.7,2.8,10.4,6.1,17l-3.3,0.7C325,176.3,322.4,173.7,320.1,170.5z M330.3,188.3
		c-0.3-0.5-0.7-0.8-1.3-0.8c-1-0.2-2.3,0.1-4,0.8c-1.6,0.7-3.2,1.7-4.6,2.9c-1.5,1.4-2.7,2.9-3.6,4.5c-0.8,1.5-1.2,2.7-1.2,3.6
		c0,0.4,0.1,0.8,0.3,1.2c0.3,0.3,0.6,0.5,1,0.5c0.9,0.2,2.2-0.2,4.1-1.2c1.7-0.9,3.4-2.1,5.1-3.5c3.2-2.4,4.7-4.5,4.7-6.3
		C330.9,189.5,330.7,188.9,330.3,188.3z M198,202.8v0.8c0,2.2,0.7,3.7,2.2,4.6c1,0.6,2.6,0.9,4.6,0.9c3.9,0,7.7-2.6,11.3-7.7
		c2.9-5.3,4.4-8,4.5-8.3c0.2-0.4,0.4-1,0.4-1.6c0-1.3-0.6-2.2-1.7-2.9c-2.8-1.5-7-0.5-12.8,2.9c-1.6,1-3.4,2.6-5.2,4.8
		C199.2,198.7,198.1,200.9,198,202.8z M283.2,213.3l-0.8,0.3l-3.2,0.7l-0.3,0.1l-15,33.5c0.7-0.4,1.6-1.1,2.6-2.1
		c4.7-4.4,8-8.3,9.9-11.6c4.5-8.1,6.7-14.6,6.7-19.5V213.3z M250.4,214.3l-0.3,0.1l-14.9,33.5c0.7-0.3,1.5-0.9,2.6-1.7
		c1.6-1.3,3.3-3,5.2-5.3c2.1-2.5,3.8-4.8,4.9-6.8c4.4-8,6.6-14.4,6.6-19.3v-0.6l-0.1-0.7L250.4,214.3z"/>
	<path class="st2" d="M671.4,237.8l10,10.7l-0.1-10.7h1.7v12.8h-1.8l-10.1-10.8l0.1,10.8h-1.7v-12.8H671.4z M651.8,239.4h-5.3v11.3
		h-1.8v-11.3h-5.3v-1.5h12.4V239.4z M660.7,237.8v12.8h-1.9v-12.8H660.7z M631.9,240.1c-1-0.7-2.4-1.1-4-1.1c-1.5,0-2.5,0.2-3.1,0.5
		c-0.8,0.3-1.2,0.8-1.2,1.5c0,0.4,0.2,0.7,0.5,1c0.2,0.4,1,0.6,2.3,0.7l5.1,0.6c2,0.4,3,1.5,3,3.3c0,0.9-0.2,1.6-0.6,2.2
		c-1,1.3-2.9,2-5.6,2c-1.5,0-2.6-0.1-3.4-0.4c-1.8-0.4-3.1-1.3-3.9-2.6l1.6-0.6l0.9,0.7c1.2,0.9,2.8,1.3,4.8,1.3
		c2.9,0,4.4-0.9,4.4-2.6c0-0.8-0.4-1.4-1.3-1.7c-0.6-0.2-1.7-0.3-3.3-0.5c-1.8-0.1-3-0.2-3.6-0.4c-0.7-0.2-1.3-0.5-1.8-0.9
		c-0.6-0.6-0.9-1.3-0.9-2.2c0-2.5,2-3.7,6.1-3.7c2.1,0,3.8,0.4,5.1,1.3c0.5,0.3,0.9,0.8,1.3,1.4l-1.6,0.6L631.9,240.1z M613.1,247.5
		h-7.9l-1.5,3.2h-2l6.7-12.8h1.9l6.6,12.8h-2.1L613.1,247.5z M744.2,239.1c-1.6,0-2.9,0.4-3.9,1.2c-1.2,0.9-1.8,2.2-1.8,4
		c0,1.4,0.4,2.5,1.1,3.3c1,1.2,2.7,1.8,4.9,1.8c2.1,0,3.7-0.6,4.7-1.7c0.8-0.9,1.2-2.1,1.2-3.5c0-1.6-0.6-2.9-1.8-3.8
		C747.4,239.5,746,239,744.2,239.1z M749.9,239.4c1.5,1.3,2.3,2.9,2.3,5c0,2.1-0.8,3.8-2.3,5c-1.5,1.1-3.3,1.6-5.5,1.6
		c-2.1,0-3.9-0.5-5.3-1.5c-1.7-1.1-2.5-2.8-2.5-5.2c0-2.2,0.8-4,2.5-5.2c1.4-1.2,3.2-1.7,5.3-1.7
		C746.7,237.5,748.5,238.2,749.9,239.4z M723.9,239c-1.7,0-3.1,0.4-4.1,1.2c-1.2,0.9-1.8,2.2-1.8,3.9c0,1.4,0.4,2.6,1.3,3.6
		c1.1,1.1,2.7,1.6,4.7,1.6c1.6,0,3-0.4,4.1-1.1c0.6-0.5,1-1,1.3-1.5l1.9,0.4c-0.5,1.1-1.3,1.9-2.3,2.6c-1.3,0.8-3.1,1.3-5.2,1.3
		c-2.5,0-4.4-0.7-5.8-2c-1.3-1.2-1.9-2.8-1.9-4.8c0-2.1,0.8-3.8,2.4-5.1c1.6-1,3.4-1.5,5.4-1.5c2,0,3.6,0.4,4.9,1.2
		c1,0.6,1.7,1.4,2.3,2.5l-1.9,0.5c-0.4-0.7-0.9-1.2-1.5-1.5C726.8,239.3,725.5,239,723.9,239z M758.6,248.7h2v2h-2V248.7z
		 M691,244.1c0,1,0.3,2,0.8,3c1,1.5,2.7,2.3,5,2.3c1.8,0,3.2-0.5,4.2-1.6c0.5-0.6,0.9-1.4,1-2.4h-5.6v-1.5h7.2v6.7H702v-1.7
		l-0.7,0.6c-1.3,0.9-2.9,1.4-4.9,1.4c-2.2,0-4-0.7-5.4-2c-1.3-1.3-2-2.9-2-4.7c0-1.2,0.4-2.4,1.2-3.6c1.4-2.1,3.6-3.1,6.6-3.1
		c2.2,0,4.1,0.6,5.6,1.9c0.4,0.3,0.9,0.8,1.3,1.5l-1.8,0.5l-0.8-1c-1.1-0.9-2.5-1.4-4.1-1.4c-1.7,0-3.1,0.4-4.1,1.3
		C691.5,241.3,691,242.5,691,244.1z M519.5,244.7v4.4H530v1.5h-12.3v-12.8h11.8v1.5h-10v3.8h9.7v1.5H519.5z M511.6,243.5v1.5h-9.2
		v5.6h-1.8v-12.8H512v1.5h-9.6v4.1H511.6z M536.2,237.8H548v1.5h-10v3.8h9.7v1.5H538v4.4h10.5v1.5h-12.3V237.8z M494.5,245h-9.2v5.6
		h-1.8v-12.8h11.4v1.5h-9.6v4.1h9.2V245z M470,237.5c2.3,0.1,4.2,0.7,5.6,1.9c1.5,1.3,2.3,2.9,2.3,5c0,2.1-0.8,3.8-2.3,5
		c-1.5,1.1-3.3,1.6-5.5,1.6c-2.1,0-3.9-0.5-5.3-1.5c-1.7-1.2-2.6-2.9-2.6-5.2c0-2.2,0.8-4,2.5-5.2C466.1,238,467.9,237.5,470,237.5z
		 M465.9,240.3c-1.2,0.9-1.8,2.2-1.8,4c0,1.3,0.4,2.4,1.1,3.3c1,1.2,2.7,1.8,4.9,1.8c3.9,0,5.9-1.7,5.9-5.2c0-1.6-0.6-2.9-1.8-3.8
		c-1.1-0.9-2.5-1.3-4.4-1.3C468.2,239.1,466.9,239.5,465.9,240.3z M606,246h6.4l-3-6.1l-0.2-0.5l-0.5,1.2L606,246z M594,240.4
		c-1.2-0.9-2.6-1.3-4.5-1.3c-1.5,0-2.8,0.4-3.8,1.2c-1.3,0.9-1.9,2.2-1.9,4c0,1.3,0.4,2.4,1.1,3.3c1.2,1.2,2.8,1.8,5,1.8
		c2.1,0,3.7-0.6,4.7-1.7c0.7-0.9,1.1-2.1,1.1-3.5C595.7,242.6,595.1,241.3,594,240.4z M597.6,244.4c0,2.1-0.8,3.7-2.4,5
		c-1.4,1.1-3.2,1.6-5.4,1.6c-2.2,0-4-0.5-5.3-1.5c-1.8-1.2-2.6-2.9-2.6-5.2c0-2.2,0.8-4,2.5-5.2c1.4-1.2,3.2-1.7,5.3-1.7
		c2.3,0.1,4.2,0.7,5.6,1.9C596.8,240.6,597.6,242.3,597.6,244.4z M575.6,241.6c0,2.2-1.2,3.4-3.5,3.6l4.7,5.5h-2.4l-4.4-5.1h-6.2
		v5.1h-1.8v-12.8h8.7c1.7,0,2.9,0.3,3.6,1C575.2,239.6,575.6,240.5,575.6,241.6z M563.9,244h6.4c1.5,0,2.5-0.3,3-1
		c0.3-0.4,0.5-0.9,0.5-1.4c0-0.5-0.2-0.9-0.5-1.4c-0.4-0.6-1.1-0.9-2.3-0.9h-7.1V244z M458.5,241.1l-1.9,0.5
		c-0.4-0.7-0.9-1.2-1.5-1.5c-0.9-0.7-2.2-1-3.7-1c-1.7,0-3.1,0.4-4.1,1.2c-1.2,0.9-1.8,2.2-1.8,3.9c0,1.4,0.4,2.6,1.3,3.6
		c1.1,1.1,2.7,1.6,4.7,1.6c1.6,0,3-0.4,4.1-1.1c0.6-0.5,1-1,1.3-1.5l1.9,0.4c-0.5,1.1-1.3,1.9-2.3,2.6c-1.3,0.8-3.1,1.3-5.2,1.3
		c-2.5,0-4.4-0.7-5.8-2c-1.3-1.2-1.9-2.8-1.9-4.8c0-2.1,0.8-3.8,2.4-5.1c1.6-1,3.4-1.5,5.4-1.5c2,0,3.6,0.4,4.9,1.2
		C457.2,239.3,458,240.1,458.5,241.1z"/>
	<path class="st3" d="M62.3,169.7c0,0,0.9-12,3.6-19.2c6.6-17.2,18.3-41.8,22.7-56.8c6-20.5,5.7-40.7,3.4-51.6
		c-4.4-20.9-18.6-35-18.6-35S22.1,43.9,12.3,109.1c-7.7,51,17.4,98.9,35.8,121.7c8.7,10.7,16.5,15.7,16.5,15.7S48.9,216,44.5,180.4
		c-2.6-21,0.4-44.4,8.5-62.4C53,118,51.8,161.7,62.3,169.7"/>
	<g class="st4">
		<g>
			<defs>
				<rect id="SVGID_1_" x="19.6" y="38.8" width="31.6" height="120.1"/>
			</defs>
			<clipPath id="SVGID_2_">
				<use xlink:href="#SVGID_1_"  style="overflow:visible;"/>
			</clipPath>
			<g class="st5">
				<g>
					<defs>
						<rect id="SVGID_3_" x="19.6" y="38.8" width="31.6" height="120.1"/>
					</defs>
					<clipPath id="SVGID_4_">
						<use xlink:href="#SVGID_3_"  style="overflow:visible;"/>
					</clipPath>
					<path class="st6" d="M51.2,38.8c0,0-26.8,32.2-30.9,75.2c-3.3,35.1,5.2,44.8,5.2,44.8S13.9,114,51.2,38.8"/>
				</g>
			</g>
		</g>
	</g>
	<g class="st7">
		<g>
			<defs>
				<rect id="SVGID_5_" x="65.2" y="15.7" width="22.7" height="110.8"/>
			</defs>
			<clipPath id="SVGID_6_">
				<use xlink:href="#SVGID_5_"  style="overflow:visible;"/>
			</clipPath>
			<path class="st8" d="M65.2,126.5c0,0,9.2-13.3,15.9-33c3.5-10.2,7.3-22.1,6.7-35.1c-1.4-30.9-12.6-42.7-12.6-42.7
				S90.3,57.1,65.2,126.5"/>
		</g>
	</g>
</g>
<g>
</g>
<g>
</g>
<g>
</g>
<g>
</g>
<g>
</g>
<g>
</g>
</svg>
